<svg width="452" height="459" viewBox="0 0 452 459" fill="none" xmlns="http://www.w3.org/2000/svg">
<path d="M28.5057 99.7319C28.4341 99.7202 28.3633 99.7014 28.2935 99.6727C27.817 99.4757 27.5886 98.9283 27.7865 98.4509C27.9316 98.0971 42.8099 63.1852 79.8926 72.5693C80.3933 72.6965 80.696 73.2053 80.5697 73.7061C80.4434 74.2068 79.9473 74.5141 79.4332 74.3833C43.8757 65.3503 29.6557 98.8262 29.5151 99.1657C29.3458 99.5724 28.9231 99.7972 28.5057 99.7319Z" fill="#333333"/>
<path d="M73.5202 84.707C73.5202 84.707 73.5202 84.707 73.5193 84.707C72.9846 84.6219 72.5744 84.2968 72.3953 83.8122C71.7558 82.0869 75.1091 77.4826 78.3047 73.6398C76.6621 72.3937 72.99 69.3768 70.8736 65.8367C70.3595 64.9785 70.5261 64.3945 70.7545 64.055C71.3178 63.221 72.5502 63.4154 73.0142 63.488C76.8967 64.0998 93.9263 71.7246 94.0239 74.3268C94.1332 77.2694 76.5349 84.5673 73.9591 84.7241C73.8014 84.7348 73.6581 84.7294 73.5202 84.707ZM72.7921 65.3476C75.4834 69.4314 80.1434 72.6723 80.1927 72.7064C80.4103 72.856 80.5545 73.0915 80.5894 73.3531C80.6244 73.6147 80.5464 73.8789 80.3763 74.0805C77.6491 77.3008 74.7804 81.2735 74.251 82.8026C77.8882 82.1424 90.1476 76.3423 92.0016 74.4191C89.9837 72.5505 77.2541 66.0974 72.7921 65.3476Z" fill="#333333"/>
<path d="M29.0924 109.77C28.7718 109.72 28.3123 109.548 27.9478 109.018C26.7835 107.324 27.4838 102.262 28.0311 99.2849C25.7714 100.074 21.6533 101.355 19.3085 101.11C19.3067 101.11 19.3049 101.109 19.3031 101.109C18.5974 100.998 18.1505 100.519 18.0555 99.8492C17.5083 95.9606 30.3597 77.9968 34.1733 76.2196C36.0049 75.3668 38.7939 75.2271 42.4633 75.8049C45.323 76.2554 47.6588 76.9783 47.7574 77.0088C48.1497 77.1306 48.4157 77.4952 48.4139 77.9054C48.413 78.1222 48.378 83.2559 47.4188 87.3729C46.4068 91.7174 33.2025 108.608 29.9773 109.685C29.6737 109.786 29.3763 109.815 29.0924 109.77ZM29.4175 96.9093C29.5832 96.9352 29.7435 97.0069 29.8761 97.1189C30.1394 97.3419 30.2585 97.6913 30.186 98.0272C29.233 102.495 28.9016 106.97 29.4354 107.885C32.0149 106.751 44.6701 90.9345 45.5998 86.9483C46.3091 83.9018 46.4865 80.1377 46.5312 78.5997C45.6544 78.3578 44.0127 77.9413 42.174 77.6519C38.9246 77.1405 36.4312 77.2309 34.9651 77.9153C31.2437 79.6495 20.3654 96.0198 19.9131 99.2741C22.3949 99.3072 27.1999 97.6447 28.9303 96.9639C29.087 96.9003 29.2563 96.8833 29.4175 96.9093Z" fill="#333333"/>
<path d="M378.383 287.306C378.445 287.269 378.512 287.239 378.585 287.216C379.078 287.065 379.602 287.342 379.754 287.836C379.867 288.202 390.603 324.602 356.027 340.964C355.56 341.185 355.002 340.985 354.782 340.518C354.561 340.052 354.748 339.499 355.228 339.273C388.404 323.611 378.074 288.736 377.967 288.385C377.836 287.963 378.019 287.521 378.383 287.306Z" fill="#333333"/>
<path d="M353.218 327.545C353.685 327.27 354.208 327.26 354.655 327.519C356.246 328.442 356.589 334.129 356.569 339.126C358.628 339.042 363.382 339.032 367.267 340.416C368.209 340.751 368.453 341.307 368.492 341.715C368.589 342.717 367.514 343.352 367.11 343.59C363.725 345.589 345.739 350.546 344.007 348.6C342.05 346.399 350.982 329.57 352.87 327.809C352.984 327.702 353.098 327.616 353.218 327.545ZM366.097 342.016C361.423 340.579 355.766 341.044 355.706 341.049C355.443 341.073 355.182 340.982 354.989 340.803C354.795 340.623 354.688 340.37 354.69 340.106C354.745 335.886 354.431 330.996 353.866 329.48C351.48 332.304 345.714 344.581 345.507 347.245C348.253 347.401 362.179 344.277 366.097 342.016Z" fill="#333333"/>
<path d="M371.543 279.935C371.823 279.77 372.287 279.61 372.904 279.787C374.881 280.353 377.56 284.703 379.033 287.349C380.273 285.302 382.636 281.693 384.6 280.39C384.602 280.39 384.604 280.389 384.604 280.388C385.22 280.024 385.869 280.108 386.368 280.566C389.264 283.217 390.78 305.254 388.97 309.052C388.1 310.876 386.037 312.759 382.838 314.648C380.346 316.121 378.084 317.05 377.988 317.089C377.609 317.245 377.172 317.133 376.912 316.815C376.775 316.647 373.535 312.665 371.655 308.879C369.673 304.884 369.111 283.45 370.914 280.566C371.085 280.294 371.296 280.081 371.543 279.935ZM379.475 290.064C379.331 290.149 379.162 290.196 378.988 290.194C378.643 290.189 378.329 289.996 378.171 289.69C376.064 285.637 373.472 281.974 372.478 281.609C371.209 284.125 371.51 304.381 373.33 308.047C374.721 310.849 376.98 313.865 377.924 315.08C378.754 314.708 380.286 313.986 381.888 313.038C384.72 311.364 386.586 309.708 387.282 308.246C389.049 304.54 387.024 284.988 385.303 282.191C383.368 283.745 380.719 288.085 379.817 289.712C379.736 289.86 379.616 289.981 379.475 290.064Z" fill="#333333"/>
<path d="M99.755 381.904C97.4944 378.437 61.6665 367.142 57.3298 367.142C57.0397 367.142 56.8148 367.178 56.6232 367.256C56.539 367.291 56.4593 367.337 56.384 367.391C56.324 367.432 56.2694 367.479 56.2175 367.536L56.2157 367.537C55.741 368.062 55.5583 368.652 57.6746 373.958C59.9191 379.587 72.9326 408.649 75.6849 408.857C75.7091 408.859 75.7619 408.86 75.7852 408.86C76.3459 408.859 77.8568 408.832 80.6888 399.662C82.0358 401.238 84.0304 403.307 85.3721 403.471C85.4473 403.479 85.518 403.483 85.5879 403.483C86.0133 403.483 86.3161 403.321 86.5041 403.172C87.7464 402.188 88.8417 394.667 89.5529 388.391C91.9514 387.751 98.7573 385.735 99.8974 383.147C99.9986 382.92 100.115 382.452 99.755 381.904ZM75.8309 406.788C73.2237 403.639 62.3167 380.94 58.8488 371.896C61.902 375.118 68.1231 381.139 80.704 392.67C80.3225 394.146 79.9042 395.66 79.4734 397.126C79.3713 397.28 79.323 397.453 79.3221 397.634C78.0413 401.926 76.671 405.714 75.8309 406.788ZM85.4249 401.563C84.6779 401.233 82.9207 399.488 81.331 397.504C81.7474 396.052 82.1863 394.438 82.6547 392.59C82.7407 392.256 82.635 391.903 82.3807 391.67C75.4404 385.312 65.2105 375.746 60.4153 370.866C66.5557 374.431 79.0973 382.448 87.707 388.069C87.063 393.764 86.0223 400.289 85.4249 401.563ZM88.9197 386.627C82.2839 382.292 69.6931 374.141 62.3749 369.904C73.2577 372.613 95.3691 380.683 97.9763 382.719C96.8245 384.089 92.2595 385.749 88.9197 386.627Z" fill="#333333"/>
<path d="M388.401 74.3573C387.199 70.6156 371.147 50.9024 364.163 43.8034C360.701 40.2857 359.568 39.8019 358.858 39.8019C358.516 39.8019 358.202 39.9282 357.972 40.1585C355.973 42.1578 356.562 49.2326 356.837 51.7014C351.247 54.6404 344.636 58.3901 344.171 59.9022C344.089 60.1691 344.045 60.5857 344.303 61.0658C344.942 62.2554 347.594 63.3652 349.552 64.0496C341.909 70.1221 342.548 71.5302 342.796 72.0471C343.981 74.5221 376.168 76.1856 382.695 76.1856C387.622 76.1856 388.056 75.8165 388.357 75.2136C388.394 75.1026 388.432 74.9449 388.439 74.7532C388.442 74.5947 388.423 74.4594 388.401 74.3573ZM382.694 74.3152C371.46 74.3152 348.348 72.3606 344.673 71.1594C345.377 69.9787 348.448 67.2995 352.012 64.5289C352.108 64.4796 352.18 64.4187 352.254 64.3381C353.494 63.3787 354.787 62.413 356.06 61.4976C361.799 64.3246 376.046 71.2866 383.258 74.3125C383.079 74.3134 382.891 74.3152 382.694 74.3152ZM356.383 59.5734C356.079 59.4185 355.708 59.4507 355.428 59.6505C353.875 60.7577 352.534 61.7511 351.33 62.6674C348.93 61.9159 346.692 60.9243 346.082 60.3447C347.212 59.2044 352.814 55.9303 357.807 53.303C366.168 59.2913 378.184 68.0725 383.733 72.5039C377.446 69.8041 364.825 63.737 356.383 59.5734ZM358.712 51.6503C358.319 48.2222 358.211 43.3698 359.068 41.7941C361.844 43.5203 377.706 61.4617 384.035 70.3908C378.297 65.7919 367.918 58.2378 358.712 51.6503Z" fill="#333333"/>
<path d="M347.738 291.357L347.711 291.359C344.151 291.526 341.119 288.764 340.952 285.201C340.787 281.654 343.535 278.623 347.08 278.442C348.833 278.36 350.487 278.956 351.764 280.12C353.04 281.282 353.788 282.873 353.868 284.597C354.033 288.143 351.282 291.176 347.738 291.357ZM347.644 289.49C350.162 289.362 352.116 287.206 352.001 284.685C351.943 283.458 351.412 282.328 350.504 281.502C349.597 280.674 348.422 280.252 347.196 280.308C344.656 280.438 342.702 282.592 342.821 285.112C342.939 287.644 345.094 289.608 347.624 289.491" fill="#333333"/>
<path d="M158.885 18.3177L158.858 18.3195C155.298 18.4861 152.266 15.7245 152.099 12.1611C151.934 8.61473 154.682 5.58343 158.227 5.40249C159.98 5.32007 161.634 5.91666 162.911 7.08027C164.187 8.24209 164.935 9.83387 165.015 11.5573C165.179 15.1037 162.429 18.1377 158.885 18.3177ZM158.79 16.4501C161.308 16.322 163.262 14.1667 163.147 11.6451C163.09 10.4188 162.558 9.28835 161.65 8.46245C160.743 7.63475 159.568 7.21195 158.342 7.26838C155.802 7.39827 153.848 9.5526 153.967 12.0724C154.085 14.6048 156.24 16.5683 158.77 16.4501" fill="#333333"/>
<path d="M389.493 50.9158L389.465 50.9176C385.905 51.0842 382.873 48.3225 382.707 44.7591C382.541 41.2128 385.29 38.1815 388.834 38.0005C390.587 37.9181 392.241 38.5147 393.519 39.6783C394.794 40.8401 395.542 42.4319 395.622 44.1554C395.786 47.7018 393.036 50.7348 389.493 50.9158ZM389.398 49.0481C391.916 48.92 393.871 46.7648 393.755 44.2432C393.698 43.0169 393.167 41.8864 392.258 41.0605C391.351 40.2328 390.176 39.81 388.95 39.8664C386.41 39.9963 384.457 42.1507 384.575 44.6705C384.693 47.2028 386.848 49.1663 389.378 49.0481" fill="#333333"/>
<path d="M79.9795 356.253L79.9517 356.255C76.3916 356.422 73.3599 353.66 73.1933 350.097C73.0276 346.55 75.7763 343.519 79.3212 343.338C81.0739 343.256 82.7282 343.852 84.0053 345.016C85.2807 346.178 86.0286 347.77 86.1092 349.493C86.2731 353.04 83.5226 356.073 79.9795 356.253ZM79.8836 354.386C82.4022 354.258 84.3564 352.102 84.2409 349.581C84.1836 348.355 83.6525 347.224 82.7443 346.398C81.837 345.57 80.6619 345.148 79.4358 345.204C76.8958 345.334 74.9424 347.488 75.0607 350.008C75.1789 352.541 77.3338 354.504 79.8639 354.386" fill="#333333"/>
<path d="M89.7016 101.227L89.6738 101.229C86.1137 101.395 83.082 98.6337 82.9154 95.0703C82.7497 91.5239 85.4984 88.4926 89.0433 88.3117C90.796 88.2293 92.4503 88.8258 93.7274 89.9894C95.0028 91.1513 95.7507 92.7431 95.8313 94.4665C95.9952 98.0129 93.2447 101.047 89.7016 101.227ZM89.6057 99.3592C92.1243 99.2311 94.0785 97.0759 93.963 94.5543C93.9057 93.328 93.3746 92.1975 92.4664 91.3716C91.5591 90.5439 90.384 90.1211 89.1579 90.1776C86.6179 90.3074 84.6645 92.4618 84.7828 94.9816C84.901 97.5139 87.0559 99.4775 89.586 99.3592" fill="#333333"/>
<path d="M371.878 423.709L371.85 423.711C368.29 423.877 365.258 421.116 365.091 417.552C364.926 414.006 367.674 410.974 371.219 410.794C372.972 410.711 374.626 411.308 375.903 412.471C377.179 413.633 377.927 415.225 378.007 416.948C378.172 420.495 375.422 423.528 371.878 423.709ZM371.783 421.841C374.301 421.713 376.255 419.558 376.14 417.036C376.083 415.81 375.551 414.679 374.643 413.853C373.736 413.026 372.561 412.603 371.335 412.659C368.795 412.789 366.841 414.944 366.96 417.463C367.078 419.996 369.233 421.959 371.763 421.841" fill="#333333"/>
<path d="M22.2829 142.801C22.2829 142.801 20.4379 128.793 33.919 133.326C47.4 137.859 43.0078 150.683 37.8678 146.295C32.7287 141.907 42.3719 127.021 52.6878 133.649C63.0037 140.277 60.6966 153.139 53.3793 154.088C46.0619 155.038 57.8091 139.114 67.0269 148.947C76.2447 158.782 56.119 176.712 47.8881 170.12C39.6573 163.528 46.0987 152.888 48.0726 159.372C50.0475 165.857 44.723 172.216 30.1251 171.964C15.5272 171.713 22.1719 149.251 27.2743 155.789C32.3767 162.328 23.9058 169.708 13.6078 162.004C3.30986 154.301 15.0579 138.376 22.2829 142.801Z" fill="white"/>
<path d="M30.9589 172.906L30.1098 172.899C25.3236 172.816 21.9569 170.364 20.7702 166.139C18.2517 165.819 15.597 164.658 13.048 162.751C9.01412 159.734 7.64649 155.152 9.29893 150.183C10.9935 145.091 15.5021 141.102 19.5665 141.102C20.1504 141.102 20.7182 141.181 21.2628 141.336C21.2449 139.388 21.5458 136.069 23.5216 133.815C25.7311 131.297 29.3647 130.807 34.2163 132.44C36.0882 133.068 37.7263 133.885 39.1011 134.873C41.4199 132.426 44.3799 131.04 47.3364 131.04C49.3399 131.04 51.3094 131.654 53.1938 132.863C57.6514 135.728 60.3571 140.131 60.5801 144.796C63.1972 144.872 65.5948 146.051 67.7111 148.309C70.5798 151.37 71.1092 155.482 69.1997 159.891C66.296 166.593 58.3679 172.476 52.2301 172.476C52.2301 172.476 52.2301 172.476 52.2284 172.476C50.309 172.476 48.6512 171.929 47.3033 170.85C46.6602 170.335 46.078 169.776 45.5648 169.185C42.3424 171.622 37.3223 172.906 30.9589 172.906ZM22.7522 166.213C23.5852 168.572 25.5645 170.95 30.1421 171.028L30.958 171.035C38.295 171.035 42.303 169.313 44.4561 167.679C42.3997 164.353 42.5591 160.719 43.7019 158.465C44.3629 157.164 45.3212 156.418 46.3351 156.418C47.0122 156.418 48.258 156.767 48.9683 159.099C49.9561 162.348 49.2235 165.522 46.9593 167.939C47.4009 168.452 47.9087 168.937 48.4712 169.389C49.4788 170.196 50.7425 170.605 52.2275 170.605C52.2292 170.605 52.2292 170.605 52.2292 170.605C57.6156 170.605 64.8872 165.143 67.4837 159.148C68.6104 156.544 69.3278 152.771 66.3444 149.587C64.5881 147.711 62.632 146.73 60.5344 146.667C60.0947 151.145 57.2931 154.524 53.501 155.016C53.244 155.049 53.0058 155.064 52.7872 155.066C50.9136 155.066 50.1997 153.921 50.1559 152.848C50.0502 150.21 53.8521 145.775 58.7145 144.933C58.5372 140.857 56.1414 136.98 52.1827 134.438C48.2965 131.938 43.8291 132.677 40.5475 136.067C43.7324 139.1 44.3253 142.828 43.4359 145.318C42.8171 147.055 41.4897 148.132 39.9716 148.134H39.9698C39.0608 148.134 38.1239 147.743 37.2614 147.007C34.4241 144.588 35.3403 139.855 37.9027 136.318C36.7008 135.472 35.2642 134.767 33.6207 134.214C29.5483 132.848 26.633 133.109 24.9304 135.047C22.5964 137.7 23.2027 142.633 23.2099 142.682C23.2556 143.039 23.0934 143.391 22.7898 143.586C22.4907 143.783 22.1011 143.789 21.7948 143.601C21.1159 143.184 20.3671 142.974 19.5656 142.974C16.3135 142.974 12.5026 146.473 11.0732 150.775C10.4194 152.742 9.41178 157.698 14.1685 161.256C16.2463 162.81 18.3753 163.811 20.3913 164.189C19.9767 160.562 21.0872 157.026 22.5498 155.211C23.3657 154.197 24.3178 153.662 25.3039 153.662C25.9872 153.662 27.0109 153.931 28.0141 155.214C29.825 157.537 30.2379 160.156 29.1425 162.401C28.0606 164.614 25.6451 166.042 22.7522 166.213ZM46.3351 158.288C46.1613 158.288 45.7476 158.566 45.3687 159.313C44.5322 160.961 44.3934 163.756 45.8541 166.37C47.4645 164.482 47.9356 162.131 47.1779 159.644C46.8778 158.655 46.5017 158.288 46.3351 158.288ZM25.3039 155.53C24.9098 155.53 24.4494 155.831 24.007 156.381C22.7603 157.928 21.8467 161.236 22.3017 164.356C24.6698 164.32 26.6402 163.263 27.4623 161.579C28.2308 160 27.8949 158.099 26.538 156.363C26.2416 155.984 25.7875 155.53 25.3039 155.53ZM58.6303 146.852C54.7101 147.726 51.965 151.325 52.0241 152.771C52.0313 152.951 52.0403 153.195 52.7872 153.195C52.9314 153.193 53.09 153.183 53.2601 153.16C56.0643 152.797 58.17 150.267 58.6303 146.852ZM39.3456 137.507C37.1361 140.585 36.7142 144.08 38.4741 145.585C39.8086 146.719 41.0983 146.302 41.6751 144.688C42.3477 142.805 41.8489 139.941 39.3456 137.507Z" fill="#333333"/>
<path d="M302.174 406.083C302.174 406.083 300.329 392.075 313.81 396.607C327.291 401.14 322.899 413.965 317.759 409.576C312.62 405.188 322.263 390.302 332.579 396.931C342.895 403.558 340.588 416.42 333.27 417.369C325.953 418.319 337.7 402.395 346.918 412.229C356.136 422.063 336.01 439.993 327.779 433.401C319.548 426.809 325.99 416.169 327.964 422.654C329.938 429.138 324.614 435.497 310.016 435.245C295.418 434.994 302.063 412.531 307.165 419.07C312.268 425.609 303.797 432.989 293.499 425.285C283.201 417.582 294.949 401.658 302.174 406.083Z" fill="white"/>
<path d="M310.85 436.187L310.001 436.18C305.215 436.097 301.846 433.645 300.661 429.42C298.143 429.1 295.488 427.94 292.939 426.032C288.905 423.015 287.538 418.434 289.19 413.464C290.885 408.372 295.393 404.383 299.458 404.383C300.042 404.383 300.609 404.462 301.154 404.617C301.136 402.669 301.437 399.35 303.413 397.096C305.624 394.578 309.256 394.088 314.107 395.721C315.979 396.349 317.617 397.166 318.992 398.154C321.311 395.707 324.271 394.321 327.229 394.321C329.231 394.321 331.201 394.935 333.085 396.144C337.543 399.01 340.248 403.412 340.471 408.078C343.088 408.153 345.486 409.333 347.602 411.59C350.471 414.651 351 418.763 349.091 423.172C346.187 429.874 338.259 435.757 332.121 435.757C332.121 435.757 332.121 435.757 332.12 435.757C330.2 435.757 328.542 435.211 327.194 434.131C326.551 433.616 325.969 433.057 325.456 432.466C322.234 434.903 317.214 436.187 310.85 436.187ZM302.642 429.494C303.475 431.853 305.454 434.231 310.033 434.309L310.849 434.317C318.186 434.317 322.194 432.594 324.347 430.96C322.291 427.634 322.45 424 323.593 421.746C324.254 420.445 325.212 419.699 326.226 419.699C326.903 419.699 328.149 420.048 328.859 422.38C329.847 425.629 329.115 428.803 326.851 431.22C327.292 431.733 327.8 432.219 328.362 432.67C329.37 433.477 330.634 433.887 332.119 433.887C332.12 433.887 332.12 433.887 332.12 433.887C337.507 433.887 344.778 428.424 347.375 422.429C348.502 419.825 349.219 416.052 346.236 412.868C344.479 410.992 342.523 410.012 340.426 409.948C339.986 414.426 337.184 417.805 333.392 418.297C333.135 418.331 332.897 418.345 332.678 418.345C330.805 418.347 330.091 417.202 330.047 416.13C329.941 413.491 333.743 409.057 338.606 408.215C338.428 404.138 336.033 400.261 332.074 397.719C328.182 395.215 323.718 395.959 320.439 399.35C323.624 402.381 324.216 406.111 323.327 408.598C322.708 410.335 321.381 411.413 319.863 411.414H319.861C318.952 411.414 318.015 411.026 317.153 410.287C314.315 407.866 315.232 403.136 317.794 399.598C316.592 398.753 315.155 398.048 313.512 397.494C309.436 396.126 306.518 396.391 304.818 398.331C302.479 400.999 303.094 405.912 303.102 405.961C303.148 406.319 302.986 406.671 302.684 406.866C302.381 407.064 301.993 407.067 301.687 406.881C301.008 406.464 300.259 406.255 299.458 406.255C296.206 406.255 292.395 409.754 290.965 414.055C290.311 416.022 289.304 420.978 294.061 424.537C296.138 426.091 298.266 427.091 300.283 427.469C299.869 423.842 300.979 420.307 302.442 418.489C303.258 417.478 304.212 416.942 305.195 416.942C305.878 416.942 306.902 417.211 307.905 418.494C309.716 420.817 310.129 423.436 309.034 425.681C307.952 427.896 305.536 429.324 302.642 429.494ZM326.226 421.57C326.053 421.57 325.639 421.847 325.26 422.594C324.423 424.242 324.285 427.037 325.745 429.651C327.356 427.763 327.827 425.413 327.069 422.925C326.769 421.937 326.393 421.57 326.226 421.57ZM305.195 418.812C304.801 418.812 304.341 419.113 303.898 419.663C302.651 421.21 301.738 424.517 302.191 427.638C304.561 427.601 306.531 426.544 307.354 424.86C308.122 423.282 307.786 421.381 306.429 419.644C306.134 419.265 305.679 418.812 305.195 418.812ZM338.522 410.133C334.601 411.007 331.856 414.606 331.915 416.053C331.922 416.232 331.931 416.476 332.678 416.475C332.823 416.475 332.981 416.464 333.151 416.441C335.956 416.078 338.061 413.548 338.522 410.133ZM319.237 400.788C317.027 403.867 316.605 407.361 318.365 408.866C319.7 409.998 320.99 409.585 321.566 407.969C322.239 406.086 321.74 403.222 319.237 400.788Z" fill="#333333"/>
<path d="M51.665 357.47C51.502 357.847 51.1401 358.091 50.6959 358.122C49.382 358.215 46.0091 358.418 42.2519 358.559C41.7083 360.029 41.1825 361.354 40.6863 362.501C38.7634 366.953 37.9045 367.402 37.188 367.48C36.7259 367.531 36.2951 367.332 36.0067 366.934C35.2203 365.846 33.704 361.562 32.7439 358.71C24.0509 358.596 22.2686 357.63 22.2524 356.117C22.2489 355.819 22.3886 355.538 22.6295 355.358C22.6635 355.332 25.9792 352.861 30.0167 350.023C27.4847 341.357 27.8367 340.542 28.0069 340.146C28.2048 339.688 28.8819 339.388 29.3485 339.562C30.1931 339.877 34.6202 342.966 37.4585 344.994C43.8193 340.923 45.117 340.887 45.8909 341.208C46.2805 341.37 46.5545 341.7 46.6423 342.114C46.9092 343.359 45.8998 347.241 44.9281 350.512C52.2445 356.128 51.9874 356.722 51.665 357.47ZM42.9353 356.66C45.3633 356.562 47.5737 356.443 49.0874 356.351C48.3431 355.644 46.9504 354.441 44.3432 352.422C43.8972 353.843 43.4216 355.275 42.9353 356.66ZM37.1916 365.235C37.5283 364.757 38.1007 363.771 38.9694 361.759C39.3707 360.83 39.7925 359.781 40.2296 358.627C38.2439 358.686 36.4007 358.718 34.7214 358.72C35.8992 362.18 36.7205 364.249 37.1916 365.235ZM34.0954 356.849C36.124 356.855 38.415 356.817 40.9255 356.734C41.5641 354.947 42.1919 353.061 42.7615 351.211C41.0365 349.904 39.1844 348.541 37.4012 347.256C35.8472 348.271 34.099 349.455 32.1886 350.784C32.7878 352.784 33.4389 354.857 34.0954 356.849ZM39.0939 346.171C40.509 347.195 41.9546 348.261 43.3347 349.3C44.2787 346.043 44.697 344.018 44.7991 343.067C44.1076 343.293 42.5385 344 39.0939 346.171ZM24.711 356.143C25.6012 356.406 27.6119 356.741 32.1214 356.829C31.5921 355.206 31.069 353.542 30.5773 351.915C28.0714 353.683 25.8995 355.269 24.711 356.143ZM31.6351 348.893C33.12 347.864 34.5047 346.925 35.7729 346.089C33.0663 344.162 31.0682 342.803 29.8832 342.036C30.1134 343.221 30.6212 345.378 31.6351 348.893Z" fill="#333333"/>
<path d="M375.931 184.302C375.52 184.302 375.153 184.066 374.949 183.671C374.342 182.501 372.819 179.485 371.199 176.091C369.634 176.175 368.209 176.217 366.96 176.217C362.111 176.217 361.358 175.607 361.002 174.98C360.772 174.575 360.783 174.102 361.035 173.679C361.722 172.526 365.052 169.435 367.29 167.422C363.948 159.395 364.127 157.377 365.509 156.761C365.781 156.639 366.094 156.656 366.355 156.806C366.393 156.827 369.975 158.891 374.18 161.473C381.131 155.711 382.019 155.711 382.45 155.711C382.948 155.711 383.492 156.215 383.518 156.711C383.564 157.611 382.484 162.902 381.748 166.311C388.007 170.537 388.554 171.714 388.567 172.553C388.572 172.975 388.379 173.357 388.034 173.602C386.997 174.341 383.033 174.954 379.646 175.357C377.393 184.302 376.745 184.302 375.931 184.302ZM373.212 175.966C374.264 178.157 375.25 180.139 375.936 181.492C376.289 180.529 376.841 178.772 377.661 175.578C376.179 175.732 374.676 175.864 373.212 175.966ZM363.064 174.093C363.636 174.213 364.768 174.346 366.96 174.346C367.971 174.346 369.102 174.318 370.334 174.261C369.492 172.461 368.733 170.781 368.065 169.24C365.355 171.695 363.781 173.269 363.064 174.093ZM369.534 167.924C370.332 169.789 371.277 171.877 372.348 174.15C374.241 174.027 376.221 173.856 378.145 173.646C378.661 171.543 379.178 169.302 379.65 167.156C378.102 166.131 376.322 164.995 374.345 163.769C372.745 165.113 371.101 166.532 369.534 167.924ZM381.317 168.279C380.937 169.985 380.532 171.734 380.126 173.414C383.488 172.989 385.513 172.57 386.428 172.287C385.946 171.741 384.674 170.581 381.317 168.279ZM366.459 159.028C366.571 159.949 367.061 161.928 368.769 166.103C370.048 164.974 371.368 163.833 372.667 162.737C370.05 161.138 367.732 159.773 366.459 159.028ZM375.86 162.51C377.395 163.465 378.805 164.365 380.075 165.198C380.771 161.949 381.225 159.575 381.46 158.183C380.463 158.864 378.684 160.186 375.86 162.51Z" fill="#333333"/>
<path d="M99.06 25.6881C98.3677 25.6881 97.7139 25.6881 95.8922 18.4324C89.7454 17.2491 89.2072 16.5253 89.0262 16.2825C88.8507 16.0505 88.7764 15.6232 88.8561 15.3438C88.9653 14.9496 89.2233 14.0359 96.2495 11.2035C98.7734 4.62493 99.6278 4.62672 100.197 4.62672C100.493 4.62672 100.899 4.83902 101.076 5.07461C101.527 5.68105 101.936 7.25492 102.555 9.77563C102.75 10.5666 102.984 11.5179 103.119 11.938C103.488 12.1019 104.3 12.3931 104.976 12.6358C108.588 13.9311 109.519 14.3709 109.688 15.2345C109.75 15.5578 109.586 16.029 109.342 16.2503C108.609 16.9078 105.118 18.2049 103.286 18.8561C100.312 25.6263 99.6744 25.6595 99.1119 25.6863C99.0958 25.6881 99.0761 25.6881 99.06 25.6881ZM91.405 15.4772C92.6338 15.8337 94.8729 16.3407 96.8263 16.7062C97.1863 16.7734 97.4747 17.0439 97.5625 17.4004C98.0632 19.4276 98.717 21.7342 99.1854 23.051C99.8661 21.8256 100.898 19.6542 101.736 17.7346C101.84 17.4972 102.037 17.3127 102.282 17.2267C103.954 16.639 105.84 15.917 107.011 15.4038C106.19 15.0571 105.071 14.6549 104.343 14.396C102.282 13.6561 101.893 13.4958 101.628 13.1393C101.396 12.8284 101.252 12.3098 100.738 10.2226C100.545 9.43702 100.249 8.23579 99.9861 7.33375C99.3744 8.50453 98.5181 10.4913 97.8518 12.2498C97.7587 12.4961 97.567 12.6896 97.3243 12.7881C95.1559 13.6525 92.6939 14.7552 91.405 15.4772Z" fill="#333333"/>
<path d="M390.004 130.819C389.312 130.819 388.656 130.819 386.835 123.563C380.688 122.38 380.15 121.657 379.969 121.413C379.793 121.179 379.719 120.752 379.799 120.473C379.91 120.078 380.167 119.165 387.192 116.332C389.716 109.754 390.57 109.756 391.14 109.756C391.434 109.756 391.841 109.965 392.019 110.203C392.47 110.81 392.878 112.384 393.497 114.904C393.692 115.695 393.926 116.647 394.061 117.067C394.43 117.231 395.245 117.524 395.921 117.765C399.531 119.062 400.462 119.502 400.632 120.363C400.694 120.688 400.53 121.16 400.285 121.379C399.553 122.037 396.061 123.334 394.23 123.987C391.255 130.753 390.62 130.787 390.059 130.817C390.04 130.819 390.02 130.819 390.004 130.819ZM382.346 120.608C383.573 120.963 385.814 121.471 387.769 121.837C388.129 121.904 388.417 122.175 388.505 122.531C389.006 124.556 389.659 126.865 390.128 128.18C390.809 126.954 391.84 124.785 392.679 122.865C392.782 122.628 392.98 122.443 393.225 122.357C394.893 121.77 396.781 121.048 397.954 120.533C397.133 120.188 396.013 119.786 395.288 119.525C393.224 118.785 392.835 118.625 392.57 118.268C392.338 117.957 392.194 117.439 391.681 115.351C391.487 114.568 391.192 113.365 390.929 112.464C390.317 113.633 389.461 115.62 388.794 117.379C388.701 117.625 388.509 117.818 388.267 117.917C386.098 118.783 383.635 119.887 382.346 120.608Z" fill="#333333"/>
<path d="M80.7372 319.052C80.0449 319.052 79.3893 319.052 77.5676 311.796C71.4209 310.613 70.8826 309.889 70.7017 309.646C70.5261 309.413 70.4518 308.985 70.5315 308.706C70.6425 308.312 70.9005 307.398 77.9249 304.566C80.4488 297.989 81.3033 297.989 81.8729 297.989C82.1666 297.989 82.5742 298.198 82.7515 298.437C83.2029 299.045 83.6113 300.619 84.232 303.139C84.4254 303.929 84.6592 304.882 84.7944 305.3C85.1634 305.464 85.974 305.757 86.6475 305.998C90.2632 307.293 91.1964 307.735 91.3639 308.596C91.4275 308.92 91.2636 309.391 91.0191 309.612C90.2846 310.27 86.7935 311.567 84.9619 312.22C81.9875 318.987 81.3516 319.021 80.791 319.05C80.7739 319.052 80.7542 319.052 80.7372 319.052ZM73.0796 308.841C74.3066 309.196 76.5474 309.705 78.5026 310.07C78.8627 310.135 79.151 310.408 79.2388 310.764C79.7395 312.79 80.3933 315.098 80.8617 316.413C81.5424 315.188 82.5742 313.018 83.4125 311.098C83.5164 310.861 83.7134 310.676 83.9588 310.59C85.6274 310.003 87.5145 309.281 88.6877 308.766C87.8647 308.419 86.7433 308.017 86.0161 307.758C83.9579 307.02 83.571 306.86 83.3041 306.505C83.0721 306.19 82.9279 305.672 82.4147 303.586C82.2231 302.801 81.9257 301.598 81.6624 300.698C81.0489 301.867 80.1945 303.853 79.5281 305.612C79.435 305.858 79.2433 306.052 79.0006 306.15C76.8314 307.016 74.3684 308.12 73.0796 308.841Z" fill="#333333"/>
<path d="M119.882 35.0454L119.707 22.1758L128.92 30.2745L139.653 27.0022L137.486 36.9901L143.884 46.6546L133.23 46.2425L126.292 56.4705L123.141 44.0595L111.637 42.2635L119.882 35.0454Z" fill="#333333"/>
<path d="M377.296 350.162L377.121 337.294L386.334 345.391L397.067 342.12L394.901 352.108L401.298 361.771L390.645 361.36L383.706 371.587L380.555 359.176L369.052 357.381L377.296 350.162Z" fill="#333333"/>
<path d="M382.374 196.751C382.355 196.746 382.337 196.734 382.317 196.73C378.806 195.357 375.002 194.576 371.011 194.576C353.812 194.576 339.818 208.571 339.818 225.775C339.818 242.979 353.811 256.974 371.011 256.974C388.212 256.974 402.205 242.979 402.205 225.775C402.205 212.585 393.966 201.307 382.374 196.751ZM395.319 242.163C393.243 241.431 391.143 240.838 389.038 240.368C390.282 235.616 390.767 231.023 390.757 226.709H400.287C400.106 232.417 398.319 237.726 395.319 242.163ZM371.946 255.057V240.711C376.63 240.582 381.647 240.849 386.684 241.794C385.563 245.481 383.974 249.247 381.761 253.036C378.705 254.246 375.401 254.947 371.946 255.057ZM360.472 252.609C360.443 252.562 358.148 248.842 356.279 242.545C360.068 241.774 364.82 241.045 370.076 240.782V255.056C366.745 254.95 363.559 254.289 360.596 253.158C360.608 252.971 360.579 252.78 360.472 252.609ZM341.734 226.71H352.078C352.157 232.227 352.959 237.1 353.994 241.124C350.63 241.878 348.251 242.599 347.266 242.916C343.945 238.327 341.926 232.751 341.734 226.71ZM347.571 208.227C347.642 208.29 347.714 208.351 347.806 208.391C349.887 209.296 351.934 210.048 353.943 210.68C352.698 215.714 352.144 220.467 352.074 224.841H341.734C341.932 218.619 344.07 212.892 347.571 208.227ZM359.915 198.643C363.065 197.35 366.491 196.609 370.076 196.495V211.528C365.821 211.415 361.153 210.795 356.213 209.403C357.112 206.161 358.3 202.796 359.883 199.324C359.985 199.1 359.986 198.859 359.915 198.643ZM381.497 198.419C382.109 199.465 384.367 203.538 386.235 209.584C382.527 210.601 377.648 211.506 371.945 211.546V196.495C375.303 196.601 378.514 197.271 381.497 198.419ZM371.946 213.403C377.844 213.36 382.908 212.429 386.76 211.372C387.835 215.256 388.681 219.826 388.863 224.841H371.946V213.403ZM370.076 213.378V224.84H353.926C354.006 220.693 354.525 216.11 355.736 211.198C360.847 212.634 365.671 213.267 370.076 213.378ZM354.99 237.308C354.403 234.324 353.965 230.744 353.918 226.71H370.076V238.916C364.617 239.183 359.688 239.944 355.776 240.744C355.492 239.661 355.226 238.515 354.99 237.308ZM371.946 238.847V226.711H388.897C388.904 230.904 388.429 235.372 387.207 239.995C381.988 239 376.792 238.716 371.946 238.847ZM390.723 224.84C390.536 219.63 389.656 214.883 388.539 210.848C391.847 209.817 393.978 208.802 394.634 208.472C398.026 213.092 400.094 218.727 400.287 224.84H390.723ZM393.475 206.959C392.639 207.362 390.753 208.203 388.016 209.06C386.747 204.942 385.305 201.708 384.275 199.653C387.813 201.458 390.945 203.942 393.475 206.959ZM357.696 199.678C356.326 202.822 355.247 205.889 354.42 208.865C352.558 208.275 350.664 207.582 348.736 206.751C351.222 203.844 354.263 201.437 357.696 199.678ZM348.464 244.5C349.643 244.139 351.732 243.544 354.491 242.927C355.727 247.175 357.145 250.299 358.03 252.036C354.34 250.202 351.075 247.639 348.464 244.5ZM384.608 251.737C386.302 248.513 387.578 245.313 388.521 242.17C390.403 242.586 392.279 243.11 394.138 243.741C391.572 247.038 388.332 249.778 384.608 251.737Z" fill="#333333"/>
<path d="M50.6252 317.337C50.481 317.337 50.3368 317.304 50.2033 317.237C47.7305 315.988 26.0669 304.815 26.5049 297.294C26.6616 294.585 28.5022 293.032 31.5536 293.032C33.5553 293.032 36.029 293.685 38.492 294.848C39.1145 290.838 41.2345 286.694 45.3875 287.213C47.4582 287.461 49.1456 288.486 50.4039 290.257C55.6174 297.596 51.708 315.829 51.5378 316.602C51.476 316.885 51.2879 317.123 51.0264 317.247C50.8983 317.306 50.7613 317.337 50.6252 317.337ZM31.5536 294.903C28.8309 294.903 28.4332 296.329 28.3705 297.403C28.0767 302.46 42.9272 311.325 49.9463 315.001C50.7201 310.841 52.8992 296.998 48.8778 291.339C47.9248 289.997 46.7086 289.254 45.1636 289.068C42.3038 288.739 40.6622 292.15 40.2537 295.772C41.994 296.783 45.5604 299.174 45.6365 301.788C45.658 302.509 45.4135 303.537 44.1336 304.334C42.6469 305.258 41.1386 305.104 40.0675 303.948C38.6103 302.376 38.1974 299.353 38.2995 296.837C35.9072 295.619 33.4201 294.903 31.5536 294.903ZM40.1597 297.9C40.2072 300.011 40.6854 301.863 41.4396 302.677C41.7683 303.032 42.0423 303.073 42.2179 303.073C42.4866 303.073 42.7982 302.962 43.1493 302.744C43.7118 302.394 43.7754 302.078 43.7682 301.842C43.744 300.984 42.5958 299.463 40.1597 297.9Z" fill="#333333"/>
<path d="M346.682 126.43C346.545 126.43 346.408 126.399 346.279 126.339C346.018 126.214 345.83 125.977 345.768 125.694C345.598 124.922 341.688 106.688 346.9 99.3512C348.16 97.5775 349.848 96.5537 351.918 96.3046C356.062 95.7806 358.192 99.9298 358.813 103.94C361.276 102.778 363.749 102.124 365.751 102.124C368.801 102.124 370.642 103.679 370.798 106.386C371.238 113.908 349.575 125.08 347.103 126.329C346.97 126.397 346.826 126.43 346.682 126.43ZM352.565 98.1356C352.426 98.1356 352.286 98.1445 352.141 98.1616C350.595 98.3479 349.38 99.0914 348.425 100.435C344.403 106.098 346.583 119.936 347.357 124.095C354.376 120.419 369.229 111.556 368.933 106.497C368.871 105.423 368.472 103.997 365.751 103.997C363.885 103.997 361.398 104.714 359.005 105.931C359.105 108.447 358.694 111.47 357.237 113.042C356.632 113.692 355.889 114.036 355.085 114.037C355.085 114.037 355.085 114.037 355.084 114.037C354.463 114.037 353.818 113.831 353.168 113.427C351.888 112.631 351.643 111.604 351.665 110.882C351.742 108.268 355.309 105.878 357.049 104.866C356.664 101.427 355.172 98.1356 352.565 98.1356ZM357.146 106.993C354.708 108.556 353.56 110.08 353.536 110.936C353.529 111.174 353.592 111.49 354.155 111.838C354.505 112.056 354.818 112.167 355.086 112.167C355.264 112.167 355.536 112.125 355.866 111.771C356.62 110.956 357.099 109.104 357.146 106.993Z" fill="#333333"/>
<path d="M36.8378 53.9928C45.5344 57.0626 54.7343 55.4466 61.7256 50.4885C59.0996 43.4549 48.6996 39.5368 48.37 37.7229C47.9857 35.6097 50.2024 34.1317 53.2753 31.8269C56.3483 29.522 60.6634 18.8973 48.9315 15.3205C37.2005 11.7445 35.6896 26.1109 38.4858 29.7137C41.204 33.2162 40.2878 37.4129 34.1715 35.5363C29.9155 34.2302 24.1216 37.3 20.986 39.2905C23.9237 45.9219 29.4578 51.387 36.8378 53.9928Z" fill="#333333"/>
<path d="M72.552 37.644C77.7342 22.9587 70.0058 6.7954 55.3228 1.61246C40.6416 -3.57049 24.4808 4.15914 19.2987 18.8444C16.8984 25.6451 17.1939 33.0398 20.1316 39.6676C20.1334 39.6721 20.1379 39.6756 20.1406 39.6801C20.1432 39.6864 20.1424 39.6936 20.1459 39.6998C20.3806 40.1818 25.8601 51.1953 37.0814 55.1573C37.4451 55.2854 37.8159 55.4072 38.1929 55.5201C45.6052 57.7479 53.6829 56.3245 62.2012 51.2947C62.2147 51.2867 62.2209 51.2741 62.2335 51.2652C62.2433 51.2589 62.2568 51.2589 62.2666 51.2517C67.0511 47.8585 70.6076 43.153 72.552 37.644ZM54.7003 3.37534C68.4097 8.2152 75.6276 23.309 70.7885 37.0215C69.1012 41.8022 66.1124 45.9353 62.1108 49.0392C59.9908 44.8013 55.3702 41.7673 52.2302 39.7043C50.9987 38.8981 49.4689 37.8931 49.2898 37.5562C49.0471 36.2197 50.4711 35.0875 53.218 33.0362L53.836 32.5749C55.7822 31.1156 58.1306 26.832 57.4803 22.5834C57.0719 19.9274 55.2672 16.3228 49.2056 14.4256C42.9953 12.5337 39.8212 15.5149 38.4795 17.4605C35.6959 21.5013 35.8025 27.7834 37.746 30.2879C38.9273 31.8072 39.3313 33.4778 38.7294 34.3494C38.1472 35.1914 36.5853 35.2989 34.4456 34.6405C30.3929 33.3999 25.2886 35.6053 21.424 37.9199C19.0765 31.9899 18.9404 25.4785 21.0622 19.467C25.9013 5.75451 40.9909 -1.46452 54.7003 3.37534ZM38.7455 53.7321C29.182 50.8827 23.6837 42.2008 22.2301 39.6255C25.3039 37.7659 30.289 35.3222 33.8957 36.4294C37.9663 37.679 39.634 36.3281 40.2672 35.4136C41.3608 33.828 40.9524 31.3656 39.2238 29.1405C37.8588 27.3838 37.6743 21.9268 40.02 18.522C41.8587 15.8517 44.8475 15.0535 48.6584 16.2162C52.8598 17.4847 55.1526 19.725 55.6309 22.8674C56.1441 26.2149 54.2776 29.9063 52.7138 31.0798L52.1003 31.5393C49.2432 33.6704 46.988 35.3526 47.4493 37.8922C47.6373 38.9286 48.9047 39.7598 51.2029 41.2701C54.2229 43.2534 58.6617 46.2031 60.5013 50.0908C52.7371 54.4864 45.418 55.7324 38.7455 53.7321Z" fill="#333333"/>
<path d="M330.81 61.8263C330.792 61.8263 330.773 61.8263 330.755 61.8245C330.24 61.7931 329.846 61.3515 329.877 60.8365C329.877 60.8221 329.957 59.4561 329.957 57.2113C329.957 56.6944 330.376 56.2447 330.893 56.2447C331.409 56.2447 331.828 56.6335 331.828 57.1504C331.828 59.5358 331.743 60.9457 331.743 60.9457C331.714 61.4429 331.301 61.8263 330.81 61.8263ZM179.344 54.5813C178.632 54.5705 177.858 54.5446 177.159 54.4684C176.646 54.412 176.275 53.9498 176.332 53.4365C176.388 52.9214 176.852 52.5506 177.363 52.6088C177.993 52.6778 178.654 52.7369 179.341 52.7109C179.852 52.7109 180.374 52.6912 180.916 52.6473C181.424 52.6142 181.883 52.9886 181.922 53.5037C181.964 54.0187 181.581 54.4702 181.066 54.5096C180.473 54.558 179.899 54.5813 179.344 54.5813ZM330.819 54.3385C330.318 54.3385 329.905 53.9426 329.884 53.4383C329.842 52.2917 329.775 51.0457 329.676 49.7325C329.638 49.2174 330.025 48.7686 330.54 48.7301C331.046 48.688 331.503 49.0785 331.542 49.5936C331.64 50.9319 331.708 52.1994 331.754 53.3684C331.772 53.8835 331.371 54.3179 330.854 54.3385C330.843 54.3385 330.83 54.3385 330.819 54.3385ZM184.647 53.8333C184.258 53.8333 183.896 53.5906 183.763 53.2018C183.594 52.7145 183.854 52.1806 184.343 52.0149C185.454 51.6333 186.382 51.0887 187.186 50.3479C187.565 49.9976 188.156 50.0209 188.506 50.4007C188.856 50.7787 188.833 51.3708 188.453 51.7211C187.471 52.6285 186.291 53.3227 184.949 53.7831C184.85 53.8163 184.747 53.8333 184.647 53.8333ZM173.632 53.6371C173.525 53.6371 173.416 53.6192 173.311 53.5807C172.061 53.1221 170.88 52.4977 169.797 51.7273C169.377 51.4282 169.278 50.8432 169.578 50.4231C169.879 50.0048 170.463 49.9062 170.882 50.2036C171.829 50.8773 172.861 51.4237 173.953 51.8232C174.438 52.0023 174.687 52.5389 174.51 53.0226C174.372 53.4033 174.014 53.6371 173.632 53.6371ZM282.147 53.2376C282.131 53.2376 282.112 53.2376 282.094 53.2358C281.678 53.2116 281.245 53.1624 280.794 53.088C279.627 52.891 278.763 52.0633 278.356 50.7554C278.203 50.2628 278.478 49.7378 278.971 49.5847C279.473 49.4333 279.99 49.7092 280.142 50.2001C280.43 51.1299 280.917 51.2114 281.102 51.2427C281.481 51.3063 281.849 51.3484 282.199 51.369C282.716 51.3986 283.108 51.8402 283.079 52.3553C283.052 52.8542 282.639 53.2376 282.147 53.2376ZM285.773 52.5604C285.439 52.5604 285.116 52.3813 284.948 52.0633C284.705 51.6082 284.879 51.0421 285.334 50.7993C286.222 50.3264 286.894 49.5596 287.334 48.5187C287.537 48.0403 288.089 47.8227 288.56 48.0197C289.036 48.2222 289.259 48.7704 289.058 49.2452C288.447 50.6936 287.488 51.7712 286.212 52.4502C286.072 52.5255 285.923 52.5604 285.773 52.5604ZM232.585 52.2021C231.756 52.2021 230.914 51.7892 230.153 51.008C229.793 50.639 229.801 50.0478 230.171 49.6859C230.538 49.3276 231.129 49.3356 231.493 49.7038C232.08 50.3066 232.572 50.5055 233.013 50.1732C233.112 50.0979 233.209 50.003 233.304 49.8865C233.634 49.4888 234.224 49.4297 234.62 49.7566C235.018 50.0854 235.077 50.673 234.75 51.0734C234.56 51.3036 234.356 51.5007 234.142 51.6637C233.67 52.0212 233.146 52.2021 232.585 52.2021ZM167.617 49.3562C167.35 49.3562 167.084 49.2416 166.9 49.0203C166.091 48.052 165.357 46.9511 164.722 45.7516C164.479 45.2948 164.653 44.7287 165.108 44.4877C165.565 44.245 166.129 44.4187 166.372 44.8747C166.949 45.9613 167.608 46.9529 168.335 47.8227C168.666 48.2186 168.613 48.8089 168.216 49.1395C168.041 49.2855 167.829 49.3562 167.617 49.3562ZM189.997 48.9728C189.857 48.9728 189.716 48.9415 189.582 48.8761C189.119 48.6459 188.93 48.0851 189.159 47.6229C189.621 46.6895 190.013 45.6012 190.358 44.2915C190.488 43.7908 191.008 43.4898 191.499 43.6251C192 43.7568 192.297 44.2682 192.165 44.7663C191.787 46.1995 191.353 47.4052 190.835 48.4515C190.671 48.7829 190.34 48.9728 189.997 48.9728ZM228.989 48.0636C228.602 48.0636 228.239 47.8209 228.105 47.4339C227.692 46.2345 227.415 44.9338 227.284 43.566C227.235 43.0527 227.613 42.594 228.126 42.5448C228.632 42.5251 229.096 42.8717 229.147 43.3868C229.263 44.6086 229.509 45.7651 229.873 46.8239C230.042 47.3112 229.782 47.8451 229.295 48.0126C229.194 48.0475 229.091 48.0636 228.989 48.0636ZM235.361 47.9597C235.304 47.9597 235.248 47.9543 235.191 47.9454C234.683 47.8522 234.347 47.3667 234.438 46.857C234.632 45.8018 234.729 44.6033 234.729 43.3008C234.729 42.784 235.147 42.3656 235.664 42.3656C236.18 42.3656 236.599 42.784 236.599 43.3008C236.599 44.7161 236.491 46.0257 236.279 47.1929C236.197 47.6435 235.802 47.9597 235.361 47.9597ZM279.132 47.7035C279.09 47.7035 279.048 47.7017 279.004 47.6946C278.493 47.6256 278.135 47.1544 278.204 46.6429C278.359 45.4883 278.648 44.21 279.059 42.8476C279.208 42.3549 279.722 42.0718 280.224 42.2232C280.717 42.371 280.998 42.8932 280.848 43.3886C280.467 44.6561 280.2 45.8358 280.056 46.8947C279.994 47.364 279.593 47.7035 279.132 47.7035ZM330.249 46.8696C329.782 46.8696 329.378 46.5193 329.322 46.0419C329.183 44.8478 329.014 43.6188 328.814 42.3746C328.73 41.8649 329.077 41.3848 329.586 41.3023C330.09 41.2164 330.575 41.5639 330.658 42.0745C330.866 43.3474 331.038 44.6024 331.18 45.826C331.238 46.3393 330.871 46.8033 330.359 46.8633C330.322 46.8678 330.286 46.8696 330.249 46.8696ZM288.872 46.0965C288.355 46.0965 287.937 45.7418 287.937 45.2249V45.095C287.937 44.047 287.807 42.9076 287.554 41.7072C287.448 41.2029 287.77 40.7067 288.275 40.5983C288.777 40.5015 289.275 40.8124 289.384 41.3194C289.665 42.6469 289.807 43.9162 289.807 45.0941C289.807 45.6128 289.389 46.0965 288.872 46.0965ZM164.087 42.8019C163.695 42.8019 163.33 42.5537 163.2 42.1587C162.637 40.4567 162.38 39.0522 162.276 38.3651C162.197 37.8536 162.55 37.3771 163.059 37.3C163.562 37.223 164.047 37.5741 164.124 38.0838C164.219 38.7118 164.456 40.0017 164.975 41.5738C165.137 42.0629 164.871 42.5932 164.379 42.7535C164.284 42.7875 164.184 42.8019 164.087 42.8019ZM192.035 41.8013C191.982 41.8013 191.929 41.7977 191.876 41.7887C191.367 41.701 191.025 41.2172 191.111 40.7093C191.273 39.7652 191.422 38.7987 191.572 37.8241L191.694 37.0241C191.773 36.5144 192.264 36.1642 192.761 36.2421C193.272 36.3209 193.621 36.7993 193.543 37.309L193.42 38.1071C193.269 39.0952 193.119 40.0707 192.956 41.0238C192.877 41.4797 192.481 41.8013 192.035 41.8013ZM228.241 40.6762C228.207 40.6762 228.175 40.6744 228.142 40.6708C227.627 40.618 227.255 40.1575 227.309 39.6443C227.444 38.3552 227.709 37.0653 228.096 35.8095C228.248 35.3141 228.772 35.0355 229.265 35.1923C229.758 35.3437 230.035 35.8677 229.882 36.3613C229.532 37.5007 229.29 38.6715 229.168 39.8386C229.119 40.3179 228.712 40.6762 228.241 40.6762ZM281.217 40.532C281.096 40.532 280.976 40.5105 280.859 40.4603C280.382 40.2632 280.156 39.715 280.353 39.2385C280.829 38.0883 281.37 36.9211 281.961 35.7718C282.195 35.3114 282.763 35.1287 283.22 35.3678C283.678 35.6034 283.861 36.166 283.624 36.6264C283.058 37.7291 282.539 38.8506 282.081 39.9542C281.931 40.3143 281.584 40.532 281.217 40.532ZM235.419 40.5024C234.955 40.5024 234.554 40.1575 234.493 39.6846C234.342 38.4824 234.117 37.2812 233.828 36.1158C233.704 35.6151 234.009 35.1081 234.511 34.9836C235.013 34.859 235.519 35.1663 235.643 35.667C235.95 36.9014 236.186 38.1743 236.348 39.4508C236.411 39.9623 236.05 40.4299 235.537 40.4953C235.5 40.5006 235.459 40.5024 235.419 40.5024ZM329.04 39.4821C328.611 39.4821 328.224 39.1847 328.13 38.7458C327.868 37.5482 327.572 36.3514 327.237 35.1699C327.094 34.6727 327.383 34.1559 327.88 34.0152C328.382 33.8638 328.893 34.1612 329.034 34.6584C329.381 35.8766 329.688 37.1128 329.957 38.3472C330.066 38.8515 329.747 39.3496 329.243 39.4597C329.174 39.475 329.108 39.4821 329.04 39.4821ZM287.41 38.8632C287.032 38.8632 286.675 38.6329 286.535 38.2567C286.12 37.1576 285.62 36.0468 285.046 34.9531C284.805 34.4963 284.982 33.9301 285.438 33.691C285.893 33.4518 286.461 33.6274 286.7 34.0833C287.31 35.2451 287.843 36.4266 288.284 37.5992C288.466 38.0811 288.222 38.6204 287.737 38.8031C287.63 38.8443 287.519 38.8632 287.41 38.8632ZM193.244 34.4067C193.184 34.4067 193.123 34.4013 193.063 34.3906C192.557 34.292 192.225 33.8002 192.323 33.2932C192.599 31.8833 192.886 30.665 193.203 29.5713C193.348 29.0741 193.861 28.7875 194.363 28.9335C194.859 29.0777 195.145 29.5964 195.001 30.0935C194.698 31.1326 194.424 32.2962 194.161 33.6515C194.072 34.0958 193.682 34.4067 193.244 34.4067ZM284.629 33.871C284.462 33.871 284.295 33.8271 284.141 33.734C283.702 33.4652 283.563 32.8901 283.831 32.4485C283.873 32.3813 283.915 32.3115 283.957 32.2443C283.688 32.2183 283.361 32.1019 283.179 31.8331C282.502 30.8308 281.762 29.8535 280.98 28.9326C280.648 28.5385 280.695 27.9482 281.089 27.614C281.483 27.2835 282.072 27.331 282.408 27.7233C283.231 28.697 284.011 29.7272 284.726 30.7842C284.756 30.8281 284.781 30.8738 284.803 30.9194C285.172 30.3605 285.554 29.8105 285.943 29.2721C286.245 28.8538 286.828 28.7642 287.248 29.0625C287.667 29.3653 287.762 29.9502 287.458 30.3685C286.744 31.3548 286.061 32.3831 285.426 33.424C285.251 33.7125 284.942 33.871 284.629 33.871ZM230.416 33.57C230.268 33.57 230.119 33.5351 229.98 33.4625C229.523 33.2216 229.348 32.6554 229.589 32.1986C230.092 31.2473 230.676 30.3157 231.331 29.4226C231.317 29.3948 231.302 29.368 231.289 29.342C231.047 28.8851 231.22 28.319 231.676 28.078C232.137 27.8335 232.701 28.0091 232.94 28.465C233.019 28.611 233.095 28.7588 233.17 28.9066C233.26 29.0159 233.322 29.144 233.353 29.2757C233.778 30.1446 234.167 31.0529 234.516 31.9881C234.697 32.4718 234.451 33.0111 233.966 33.192C233.481 33.373 232.944 33.1266 232.763 32.642C232.602 32.2111 232.432 31.7857 232.253 31.3673C231.886 31.9245 231.548 32.4942 231.244 33.0711C231.075 33.3891 230.75 33.57 230.416 33.57ZM326.975 32.29C326.595 32.29 326.239 32.058 326.098 31.6817C325.658 30.4966 325.176 29.368 324.667 28.3217C324.44 27.8577 324.632 27.2987 325.098 27.0721C325.556 26.8508 326.119 27.0372 326.347 27.503C326.884 28.6003 327.39 29.7881 327.852 31.0278C328.033 31.5115 327.786 32.0508 327.302 32.2317C327.194 32.2721 327.083 32.29 326.975 32.29ZM289.011 27.8102C288.795 27.8102 288.58 27.7368 288.405 27.5854C288.011 27.2512 287.965 26.6609 288.301 26.2686C289.144 25.2788 290.023 24.3382 290.914 23.4693C291.281 23.111 291.873 23.1208 292.236 23.4854C292.596 23.8563 292.588 24.4475 292.22 24.8094C291.369 25.6371 290.529 26.5373 289.722 27.4815C289.537 27.6982 289.273 27.8102 289.011 27.8102ZM234.964 27.6767C234.714 27.6767 234.465 27.5764 234.281 27.3811C233.929 27.0031 233.948 26.411 234.325 26.059C235.244 25.2008 236.251 24.3821 237.32 23.6225C237.74 23.3305 238.324 23.4218 238.624 23.8455C238.921 24.2656 238.822 24.8497 238.401 25.1498C237.4 25.8583 236.46 26.6251 235.604 27.425C235.423 27.5925 235.192 27.6767 234.964 27.6767ZM195.408 27.2656C195.272 27.2656 195.137 27.236 195.008 27.176C194.541 26.9547 194.342 26.3958 194.563 25.9309C195.16 24.6723 195.836 23.575 196.63 22.5798C196.953 22.174 197.543 22.1086 197.943 22.432C198.347 22.7536 198.414 23.3412 198.091 23.7452C197.39 24.6275 196.787 25.6039 196.254 26.7308C196.092 27.0685 195.756 27.2656 195.408 27.2656ZM230.138 26.6681C229.852 26.6681 229.567 26.5364 229.384 26.2865C228.662 25.3003 227.874 24.391 227.041 23.5822C226.671 23.2221 226.663 22.6309 227.023 22.26C227.385 21.8892 227.976 21.882 228.345 22.2421C229.251 23.1226 230.109 24.1125 230.893 25.1802C231.197 25.5968 231.108 26.1826 230.692 26.488C230.524 26.6099 230.33 26.6681 230.138 26.6681ZM279.125 26.5445C278.895 26.5445 278.663 26.4603 278.482 26.2892C277.593 25.4472 276.659 24.658 275.706 23.9458C275.293 23.6368 275.209 23.051 275.518 22.6362C275.831 22.2233 276.417 22.1391 276.828 22.4481C277.837 23.2041 278.827 24.039 279.767 24.9303C280.142 25.2868 280.158 25.878 279.804 26.2525C279.619 26.4459 279.373 26.5445 279.125 26.5445ZM323.665 25.5985C323.362 25.5985 323.064 25.4507 322.883 25.1766C322.202 24.1411 321.462 23.1898 320.688 22.3496C320.337 21.9698 320.361 21.3795 320.741 21.0292C321.12 20.679 321.711 20.7023 322.061 21.0821C322.906 21.9966 323.708 23.0286 324.446 24.1501C324.729 24.5809 324.611 25.1596 324.177 25.4454C324.021 25.5493 323.842 25.5985 323.665 25.5985ZM241.032 23.343C240.702 23.343 240.382 23.1674 240.213 22.8575C239.964 22.4042 240.13 21.8363 240.583 21.5882C241.668 20.9943 242.826 20.4317 244.023 19.9193C244.495 19.7115 245.048 19.9337 245.25 20.4084C245.455 20.8832 245.236 21.4332 244.761 21.6356C243.619 22.1265 242.513 22.664 241.482 23.2283C241.339 23.3063 241.186 23.343 241.032 23.343ZM294.372 22.6049C294.096 22.6049 293.822 22.4822 293.638 22.2484C293.318 21.8444 293.388 21.2567 293.793 20.9352C294.823 20.1209 295.888 19.381 296.955 18.736C297.395 18.4709 297.973 18.6097 298.239 19.0522C298.506 19.4956 298.365 20.0698 297.923 20.3359C296.92 20.9423 295.919 21.6365 294.95 22.4033C294.779 22.5395 294.576 22.6049 294.372 22.6049ZM273.148 22.0773C272.99 22.0773 272.831 22.037 272.683 21.9528C271.631 21.3481 270.539 20.8115 269.438 20.3565C268.961 20.1594 268.735 19.613 268.932 19.1347C269.131 18.6581 269.677 18.4297 270.153 18.6285C271.326 19.114 272.491 19.6856 273.614 20.3305C274.062 20.5858 274.217 21.1582 273.959 21.607C273.787 21.9089 273.472 22.0773 273.148 22.0773ZM200.033 21.5255C199.746 21.5255 199.461 21.392 199.279 21.1421C198.974 20.7255 199.065 20.1415 199.481 19.836C200.507 19.0836 201.665 18.4404 202.921 17.9236C203.399 17.7229 203.946 17.9531 204.141 18.4315C204.338 18.908 204.111 19.4562 203.633 19.6515C202.515 20.1119 201.491 20.6816 200.583 21.3445C200.418 21.4672 200.224 21.5255 200.033 21.5255ZM224.793 21.4986C224.614 21.4986 224.433 21.4475 224.275 21.3418C223.292 20.6861 222.239 20.12 221.143 19.6596C220.668 19.4589 220.443 18.9107 220.644 18.4342C220.846 17.9594 221.389 17.7363 221.869 17.9352C223.073 18.4431 224.23 19.0639 225.311 19.785C225.74 20.0716 225.857 20.6521 225.571 21.0821C225.391 21.3526 225.095 21.4986 224.793 21.4986ZM247.887 20.386C247.497 20.386 247.133 20.1397 247.001 19.7483C246.837 19.2592 247.1 18.7289 247.589 18.5649C248.605 18.2236 249.67 17.9021 250.786 17.6011L251.241 17.4802C251.737 17.3574 252.249 17.6593 252.375 18.1609C252.5 18.6617 252.196 19.1687 251.695 19.295L251.278 19.4043C250.197 19.6945 249.167 20.0053 248.185 20.3359C248.086 20.3699 247.986 20.386 247.887 20.386ZM318.583 20.1764C318.395 20.1764 318.205 20.12 318.038 20.0027C317.078 19.3156 316.047 18.7441 314.971 18.3061C314.493 18.1108 314.262 17.5644 314.458 17.0878C314.653 16.6077 315.205 16.3793 315.676 16.5745C316.887 17.0672 318.047 17.7086 319.127 18.4789C319.547 18.7799 319.643 19.3631 319.344 19.785C319.162 20.0394 318.873 20.1764 318.583 20.1764ZM266.257 19.2341C266.178 19.2341 266.098 19.2251 266.017 19.2027C264.861 18.8982 263.669 18.6697 262.477 18.5237C261.964 18.4619 261.6 17.9961 261.663 17.4828C261.726 16.9696 262.201 16.5987 262.704 16.6686C263.98 16.8236 265.256 17.0681 266.497 17.3951C266.995 17.5267 267.293 18.0382 267.161 18.5381C267.049 18.9564 266.671 19.2341 266.257 19.2341ZM300.771 18.7772C300.405 18.7772 300.059 18.5614 299.909 18.2039C299.708 17.7274 299.932 17.1792 300.41 16.9803C301.622 16.4706 302.867 16.0693 304.113 15.788C304.617 15.6635 305.115 15.9887 305.231 16.493C305.346 16.9955 305.03 17.4972 304.526 17.6109C303.389 17.8707 302.246 18.2371 301.133 18.7047C301.013 18.7531 300.891 18.7772 300.771 18.7772ZM206.831 18.6491C206.401 18.6491 206.012 18.3482 205.919 17.9074C205.813 17.4013 206.135 16.9069 206.64 16.7985C207.626 16.5907 208.691 16.4294 209.804 16.3237L210.449 16.2691C210.922 16.2413 211.413 16.6122 211.453 17.1272C211.495 17.6423 211.11 18.0911 210.595 18.1314L209.983 18.186C208.939 18.2846 207.944 18.4342 207.027 18.6276C206.96 18.642 206.897 18.6491 206.831 18.6491ZM217.953 18.6052C217.888 18.6052 217.82 18.5981 217.751 18.5838C216.613 18.332 215.419 18.1672 214.205 18.0982C213.688 18.0687 213.296 17.6271 213.325 17.112C213.356 16.5969 213.761 16.1911 214.311 16.2315C215.626 16.3067 216.92 16.4832 218.157 16.7573C218.661 16.8683 218.978 17.3691 218.867 17.8734C218.769 18.3079 218.382 18.6052 217.953 18.6052ZM255.135 18.6035C254.676 18.6035 254.275 18.264 254.21 17.7964C254.14 17.2849 254.497 16.8119 255.008 16.7429C256.29 16.5656 257.585 16.4688 258.854 16.4563C258.856 16.4563 258.86 16.4563 258.863 16.4563C259.375 16.4563 259.793 16.8692 259.798 17.3825C259.804 17.8976 259.389 18.3213 258.872 18.3267C257.682 18.3392 256.467 18.4288 255.264 18.5954C255.221 18.5999 255.179 18.6035 255.135 18.6035ZM311.743 17.3762C311.692 17.3762 311.641 17.3727 311.59 17.3637C311.318 17.3198 311.04 17.2813 310.761 17.2508C309.846 17.1487 308.945 17.112 308.05 17.1505C308.04 17.1505 308.026 17.1505 308.014 17.1505C307.513 17.1505 307.099 16.7564 307.079 16.2521C307.059 15.737 307.46 15.3025 307.977 15.2801C308.952 15.2416 309.954 15.2801 310.966 15.3912C311.28 15.4262 311.586 15.4683 311.892 15.5193C312.401 15.6035 312.746 16.0836 312.662 16.5933C312.589 17.0511 312.192 17.3762 311.743 17.3762Z" fill="#333333"/>
<path d="M165.639 433.497C164.584 433.497 163.509 433.449 162.442 433.356C161.943 433.312 161.56 432.883 161.58 432.383C161.605 431.806 162.203 431.378 162.751 431.517C163.618 431.581 164.639 431.626 165.639 431.626L166.225 431.621C166.231 431.621 166.236 431.621 166.241 431.621C166.751 431.621 167.167 432.029 167.176 432.54C167.185 433.055 166.774 433.483 166.257 433.491L165.639 433.497ZM210.753 433.406C210.238 433.406 209.82 432.989 209.818 432.474C209.817 431.957 210.235 431.537 210.75 431.535C211.276 431.533 211.803 431.521 212.333 431.491C213.022 431.453 213.679 431.378 214.311 431.27C214.811 431.186 215.302 431.525 215.39 432.035C215.476 432.545 215.135 433.027 214.625 433.114C213.927 433.234 213.198 433.315 212.437 433.357C211.876 433.39 211.316 433.403 210.757 433.405C210.755 433.405 210.755 433.406 210.753 433.406ZM169.967 433.216C169.505 433.216 169.104 432.874 169.041 432.403C168.974 431.892 169.335 431.42 169.846 431.353C171.042 431.197 172.24 430.965 173.404 430.663C173.912 430.531 174.413 430.835 174.543 431.334C174.671 431.835 174.371 432.344 173.871 432.474C172.633 432.792 171.363 433.04 170.092 433.208C170.05 433.214 170.009 433.216 169.967 433.216ZM207.025 433.189C206.986 433.189 206.95 433.187 206.912 433.182C205.643 433.032 204.368 432.802 203.127 432.503C202.625 432.38 202.317 431.876 202.437 431.374C202.559 430.871 203.064 430.572 203.565 430.683C204.737 430.966 205.937 431.184 207.135 431.326C207.646 431.386 208.014 431.852 207.951 432.366C207.894 432.839 207.491 433.189 207.025 433.189ZM158.798 432.918C158.75 432.918 158.703 432.915 158.655 432.907C157.39 432.716 156.131 432.48 154.918 432.21C154.414 432.097 154.098 431.596 154.209 431.092C154.324 430.589 154.818 430.279 155.327 430.383C156.5 430.646 157.714 430.872 158.937 431.059C159.447 431.136 159.799 431.612 159.721 432.124C159.65 432.586 159.251 432.918 158.798 432.918ZM218.032 432.1C217.669 432.1 217.322 431.886 217.171 431.529C216.97 431.054 217.192 430.506 217.669 430.303C218.731 429.856 219.745 429.27 220.689 428.563C221.101 428.254 221.688 428.338 221.999 428.751C222.308 429.166 222.224 429.75 221.811 430.061C220.746 430.857 219.598 431.52 218.396 432.028C218.277 432.076 218.154 432.1 218.032 432.1ZM199.772 431.443C199.665 431.443 199.556 431.425 199.45 431.386C198.258 430.948 197.071 430.433 195.921 429.854C195.459 429.622 195.274 429.059 195.506 428.599C195.738 428.135 196.301 427.947 196.761 428.184C197.847 428.73 198.969 429.216 200.094 429.629C200.579 429.808 200.828 430.345 200.651 430.828C200.511 431.209 200.154 431.443 199.772 431.443ZM177.184 431.342C176.813 431.342 176.463 431.119 176.317 430.754C176.126 430.276 176.358 429.731 176.838 429.539C177.954 429.091 179.051 428.569 180.102 427.983C180.552 427.735 181.12 427.892 181.373 428.345C181.625 428.797 181.463 429.365 181.011 429.616C179.892 430.241 178.721 430.8 177.531 431.274C177.418 431.32 177.299 431.342 177.184 431.342ZM151.506 431.282C151.417 431.282 151.326 431.269 151.234 431.241C150.016 430.872 148.803 430.449 147.631 429.985C147.153 429.795 146.917 429.25 147.107 428.77C147.299 428.29 147.843 428.051 148.322 428.246C149.445 428.691 150.608 429.097 151.778 429.452C152.27 429.601 152.55 430.123 152.4 430.619C152.278 431.023 151.909 431.282 151.506 431.282ZM144.568 428.519C144.426 428.519 144.283 428.488 144.148 428.419C143.002 427.842 141.88 427.206 140.815 426.527C140.381 426.247 140.253 425.67 140.53 425.234C140.81 424.8 141.388 424.675 141.823 424.949C142.832 425.596 143.897 426.201 144.987 426.75C145.449 426.982 145.634 427.544 145.402 428.005C145.238 428.331 144.909 428.519 144.568 428.519ZM193.101 428.085C192.926 428.085 192.749 428.036 192.59 427.934C191.513 427.231 190.472 426.462 189.495 425.647C189.099 425.317 189.045 424.726 189.376 424.33C189.708 423.934 190.298 423.883 190.692 424.211C191.613 424.978 192.594 425.704 193.612 426.367C194.043 426.648 194.165 427.228 193.884 427.661C193.706 427.936 193.406 428.085 193.101 428.085ZM223.981 427.713C223.76 427.713 223.539 427.636 223.36 427.477C222.975 427.136 222.938 426.544 223.281 426.157C224.03 425.311 224.74 424.374 225.452 423.288C225.736 422.853 226.314 422.734 226.748 423.019C227.178 423.302 227.299 423.881 227.016 424.313C226.255 425.475 225.492 426.483 224.68 427.398C224.496 427.607 224.238 427.713 223.981 427.713ZM183.692 427.7C183.407 427.7 183.126 427.57 182.943 427.324C182.634 426.909 182.718 426.325 183.133 426.016C184.095 425.299 185.021 424.51 185.883 423.669C186.255 423.309 186.846 423.317 187.205 423.687C187.565 424.058 187.556 424.649 187.187 425.009C186.266 425.906 185.278 426.748 184.251 427.513C184.082 427.64 183.887 427.7 183.692 427.7ZM138.284 424.492C138.076 424.492 137.87 424.424 137.697 424.284C136.674 423.456 135.719 422.576 134.858 421.67C134.501 421.296 134.516 420.703 134.891 420.348C135.263 419.993 135.854 420.005 136.213 420.381C137.02 421.23 137.914 422.054 138.874 422.83C139.276 423.155 139.337 423.745 139.012 424.145C138.827 424.373 138.556 424.492 138.284 424.492ZM187.378 423.296C187.128 423.296 186.878 423.195 186.693 422.998C185.788 422.025 184.969 421.004 184.266 419.967C183.978 419.54 184.089 418.959 184.516 418.668C184.943 418.383 185.523 418.491 185.814 418.918C186.465 419.875 187.221 420.819 188.063 421.724C188.089 421.751 188.11 421.78 188.132 421.81C188.056 421.534 188.107 421.227 188.298 420.984C189.049 420.027 189.726 419.02 190.309 417.998C190.566 417.549 191.135 417.394 191.583 417.648C192.033 417.903 192.19 418.476 191.933 418.923C191.306 420.027 190.577 421.108 189.77 422.138C189.45 422.546 188.864 422.611 188.457 422.297C188.388 422.242 188.329 422.182 188.279 422.114C188.367 422.438 188.277 422.8 188.014 423.046C187.835 423.213 187.607 423.296 187.378 423.296ZM122.483 422.213C122.016 422.213 121.61 421.861 121.556 421.383C121.497 420.87 121.866 420.406 122.38 420.348C123.512 420.22 124.642 419.928 125.739 419.482C126.217 419.285 126.764 419.516 126.957 419.996C127.152 420.474 126.922 421.021 126.444 421.214C125.187 421.726 123.891 422.058 122.591 422.207C122.555 422.21 122.52 422.213 122.483 422.213ZM118.764 422.118C118.715 422.118 118.665 422.114 118.618 422.107C117.321 421.903 116.055 421.618 114.851 421.256C114.356 421.108 114.075 420.588 114.225 420.092C114.373 419.6 114.888 419.314 115.388 419.466C116.511 419.802 117.696 420.069 118.907 420.259C119.419 420.34 119.767 420.818 119.687 421.328C119.613 421.789 119.215 422.118 118.764 422.118ZM228.119 421.502C227.971 421.502 227.823 421.467 227.683 421.394C227.226 421.153 227.051 420.589 227.292 420.13C227.86 419.053 228.395 417.94 228.915 416.812C229.131 416.341 229.691 416.139 230.155 416.354C230.624 416.569 230.828 417.126 230.613 417.593C230.078 418.755 229.528 419.896 228.946 421.003C228.778 421.322 228.455 421.502 228.119 421.502ZM111.636 419.957C111.499 419.957 111.362 419.928 111.232 419.866C110.05 419.3 108.92 418.635 107.876 417.892C107.456 417.592 107.357 417.009 107.656 416.587C107.955 416.169 108.542 416.072 108.96 416.368C109.917 417.049 110.954 417.657 112.039 418.177C112.504 418.402 112.701 418.959 112.478 419.424C112.318 419.761 111.984 419.957 111.636 419.957ZM129.355 419.474C129.063 419.474 128.774 419.337 128.592 419.08C128.294 418.66 128.393 418.076 128.815 417.776C129.516 417.279 130.2 416.713 130.858 416.088C130.719 415.814 130.589 415.538 130.469 415.265C130.259 414.794 130.473 414.24 130.945 414.033C131.415 413.82 131.97 414.036 132.178 414.509C132.283 414.745 132.395 414.982 132.512 415.22C132.625 415.263 132.733 415.329 132.826 415.418C133.067 415.65 133.157 415.981 133.093 416.287C133.35 416.727 133.631 417.168 133.933 417.602C134.229 418.026 134.123 418.608 133.699 418.903C133.276 419.199 132.694 419.093 132.399 418.669C132.189 418.37 131.99 418.068 131.8 417.764C131.185 418.324 130.547 418.839 129.896 419.303C129.731 419.418 129.543 419.474 129.355 419.474ZM264.741 418.4C264.502 418.4 264.263 418.308 264.08 418.125C263.799 417.844 263.734 417.428 263.887 417.085C263.932 416.972 264.166 416.374 264.44 415.448C264.588 414.955 265.103 414.678 265.604 414.818C266.099 414.964 266.379 415.485 266.233 415.982C265.68 417.849 265.477 418.051 265.402 418.126C265.219 418.308 264.98 418.4 264.741 418.4ZM183.257 417.095C182.888 417.095 182.538 416.874 182.392 416.513C181.832 415.134 181.525 413.809 181.48 412.573C181.462 412.057 181.865 411.624 182.38 411.603C182.392 411.603 182.404 411.603 182.415 411.603C182.915 411.603 183.329 411.999 183.35 412.504C183.386 413.521 183.647 414.633 184.124 415.807C184.319 416.287 184.089 416.832 183.61 417.025C183.493 417.073 183.374 417.095 183.257 417.095ZM192.69 416.002C192.586 416.002 192.481 415.985 192.378 415.947C191.89 415.775 191.636 415.24 191.81 414.755C192.237 413.547 192.495 412.404 192.577 411.356C192.615 410.839 193.113 410.424 193.579 410.496C194.094 410.535 194.479 410.983 194.439 411.498C194.345 412.713 194.053 414.019 193.572 415.379C193.435 415.762 193.075 416.002 192.69 416.002ZM105.58 415.64C105.338 415.64 105.093 415.545 104.91 415.357C104.007 414.427 103.177 413.41 102.446 412.334C102.157 411.907 102.266 411.325 102.694 411.034C103.124 410.747 103.703 410.858 103.994 411.282C104.662 412.268 105.422 413.201 106.251 414.052C106.611 414.423 106.603 415.014 106.233 415.374C106.051 415.552 105.816 415.64 105.58 415.64ZM231.279 414.715C231.155 414.715 231.03 414.691 230.907 414.638C230.434 414.432 230.216 413.882 230.421 413.407L230.687 412.799C231.098 411.85 231.506 410.902 231.923 409.967C232.132 409.494 232.691 409.286 233.157 409.492C233.63 409.702 233.842 410.255 233.631 410.726C233.217 411.656 232.81 412.598 232.401 413.543L232.137 414.153C231.984 414.506 231.641 414.715 231.279 414.715ZM134.541 414.133C134.357 414.133 134.171 414.078 134.008 413.965C133.585 413.671 133.479 413.088 133.775 412.664C134.469 411.665 135.079 410.621 135.59 409.563C135.815 409.095 136.376 408.903 136.84 409.128C137.304 409.353 137.499 409.912 137.274 410.378C136.72 411.523 136.059 412.651 135.309 413.731C135.127 413.992 134.837 414.133 134.541 414.133ZM266.153 413.001C266.105 413.001 266.058 412.997 266.01 412.99C265.501 412.913 265.149 412.436 265.227 411.925C265.393 410.831 265.476 409.759 265.476 408.739L265.471 408.361C265.459 407.845 265.865 407.416 266.38 407.401C266.389 407.401 266.398 407.401 266.406 407.401C266.912 407.401 267.327 407.803 267.341 408.31L267.347 408.739C267.347 409.852 267.255 411.018 267.074 412.206C267.005 412.668 266.606 413.001 266.153 413.001ZM130.239 412.257C129.787 412.257 129.391 411.93 129.316 411.47C129.211 410.811 129.158 410.157 129.158 409.527C129.158 408.799 129.229 408.086 129.37 407.412C129.476 406.904 129.978 406.572 130.474 406.687C130.98 406.791 131.305 407.287 131.199 407.792C131.086 408.342 131.027 408.926 131.027 409.527C131.027 410.058 131.073 410.612 131.164 411.174C131.245 411.684 130.897 412.164 130.388 412.246C130.339 412.254 130.288 412.257 130.239 412.257ZM183.316 409.908C183.14 409.908 182.964 409.859 182.806 409.757C182.373 409.476 182.251 408.895 182.532 408.464C183.275 407.323 184.383 406.432 185.83 405.818C186.301 405.616 186.853 405.836 187.055 406.313C187.257 406.788 187.037 407.336 186.56 407.538C185.464 408.006 184.635 408.66 184.098 409.483C183.92 409.759 183.62 409.908 183.316 409.908ZM101.397 409.479C101.04 409.479 100.701 409.275 100.544 408.928C99.5759 406.776 99.2875 405.227 99.275 405.164C99.1836 404.656 99.5195 404.17 100.027 404.077C100.523 403.977 101.021 404.318 101.116 404.826C101.117 404.84 101.382 406.232 102.249 408.161C102.461 408.632 102.251 409.186 101.78 409.397C101.656 409.453 101.527 409.479 101.397 409.479ZM192.894 408.725C192.566 408.725 192.248 408.551 192.077 408.245C191.607 407.398 190.855 406.952 189.776 406.884C189.261 406.851 188.869 406.408 188.901 405.893C188.934 405.379 189.33 404.974 189.892 405.018C191.608 405.125 192.929 405.927 193.712 407.335C193.962 407.788 193.8 408.356 193.349 408.608C193.205 408.687 193.05 408.725 192.894 408.725ZM234.362 407.89C234.222 407.89 234.079 407.859 233.946 407.792C233.484 407.562 233.296 407.001 233.526 406.539C234.15 405.284 234.749 404.188 235.357 403.184C235.628 402.744 236.205 402.607 236.643 402.869C237.082 403.138 237.223 403.713 236.957 404.155C236.375 405.112 235.801 406.166 235.199 407.371C235.036 407.7 234.705 407.89 234.362 407.89ZM137.742 407.405C137.665 407.405 137.589 407.396 137.51 407.375C137.01 407.247 136.709 406.737 136.837 406.238C137.045 405.423 137.151 404.698 137.151 404.077C137.151 403.673 137.107 403.333 137.02 403.067C136.857 402.577 137.125 402.048 137.615 401.888C138.102 401.719 138.634 401.993 138.795 402.483C138.944 402.94 139.021 403.477 139.021 404.078C139.021 404.854 138.895 405.738 138.649 406.702C138.54 407.123 138.16 407.405 137.742 407.405ZM265.915 405.571C265.499 405.571 265.121 405.293 265.012 404.872C264.709 403.715 264.254 402.655 263.657 401.718C263.379 401.283 263.507 400.704 263.943 400.427C264.376 400.154 264.955 400.277 265.234 400.713C265.935 401.814 266.468 403.055 266.819 404.4C266.951 404.899 266.651 405.41 266.151 405.54C266.072 405.562 265.992 405.571 265.915 405.571ZM131.859 405.184C131.651 405.184 131.442 405.117 131.271 404.976C130.869 404.651 130.807 404.062 131.133 403.661C131.744 402.905 132.493 402.25 133.358 401.711C133.727 401.479 134.076 401.289 134.401 401.138C134.872 400.924 135.424 401.127 135.642 401.595C135.858 402.064 135.655 402.62 135.185 402.836C134.926 402.955 134.647 403.109 134.349 403.297C133.658 403.728 133.065 404.246 132.585 404.838C132.401 405.065 132.13 405.184 131.859 405.184ZM238.302 401.55C238.093 401.55 237.882 401.481 237.708 401.336C237.308 401.009 237.252 400.42 237.58 400.021C238.459 398.952 239.397 398.023 240.367 397.257C240.77 396.938 241.358 397.008 241.68 397.412C241.999 397.818 241.929 398.406 241.525 398.726C240.659 399.409 239.818 400.243 239.023 401.208C238.839 401.433 238.573 401.55 238.302 401.55ZM261.946 399.397C261.743 399.397 261.538 399.331 261.367 399.196C260.506 398.517 259.495 397.934 258.365 397.464C257.889 397.266 257.662 396.719 257.859 396.243C258.058 395.764 258.61 395.536 259.081 395.736C260.37 396.271 261.529 396.942 262.524 397.727C262.93 398.047 262.999 398.634 262.679 399.04C262.495 399.274 262.221 399.397 261.946 399.397ZM244.138 397.032C243.773 397.032 243.426 396.816 243.276 396.458C243.076 395.982 243.3 395.434 243.777 395.235C244.967 394.734 246.254 394.391 247.595 394.212C248.096 394.117 248.578 394.5 248.645 395.014C248.714 395.527 248.355 395.996 247.843 396.065C246.664 396.222 245.539 396.522 244.5 396.958C244.381 397.008 244.259 397.032 244.138 397.032ZM255.151 396.469C255.089 396.469 255.024 396.464 254.963 396.451C253.862 396.226 252.656 396.068 251.382 395.982C250.867 395.947 250.478 395.5 250.513 394.985C250.55 394.47 250.991 394.072 251.51 394.116C252.867 394.209 254.154 394.378 255.335 394.619C255.841 394.722 256.168 395.216 256.065 395.721C255.975 396.164 255.585 396.469 255.151 396.469Z" fill="#333333"/>
<path d="M326.168 85.5168C326.168 78.2861 320.308 72.426 313.079 72.426H129.591C122.362 72.426 116.502 78.287 116.502 85.5168V164.506C116.502 171.737 122.363 177.597 129.591 177.597C136.821 177.597 142.68 171.736 142.68 164.506V98.6077H299.991V354.816H142.68V288.917C142.68 281.687 136.82 275.826 129.591 275.826C122.362 275.826 116.502 281.687 116.502 288.917V367.907C116.502 375.137 122.363 380.997 129.591 380.997H313.08C320.31 380.997 326.169 375.137 326.169 367.907V85.5168H326.168Z" fill="#52AFA6"/>
<path d="M274.49 82.4873H210.293C209.776 82.4873 209.358 82.069 209.358 81.5522C209.358 81.0353 209.776 80.617 210.293 80.617H274.49C275.007 80.617 275.425 81.0353 275.425 81.5522C275.425 82.069 275.007 82.4873 274.49 82.4873Z" fill="#333333"/>
<path d="M201.282 83.0499H190.019C189.503 83.0499 189.084 82.6316 189.084 82.1147C189.084 81.5979 189.503 81.1795 190.019 81.1795H201.282C201.799 81.1795 202.217 81.5979 202.217 82.1147C202.217 82.6316 201.799 83.0499 201.282 83.0499Z" fill="#333333"/>
<path d="M200.155 373.674H140.463C139.946 373.674 139.528 373.256 139.528 372.739C139.528 372.222 139.946 371.804 140.463 371.804H200.155C200.672 371.804 201.09 372.222 201.09 372.739C201.09 373.256 200.672 373.674 200.155 373.674Z" fill="#333333"/>
<path d="M221.556 373.674H208.602C208.085 373.674 207.667 373.256 207.667 372.739C207.667 372.222 208.085 371.804 208.602 371.804H221.556C222.072 371.804 222.491 372.222 222.491 372.739C222.491 373.256 222.072 373.674 221.556 373.674Z" fill="#333333"/>
<path d="M355.549 16.0738H355.544L352.371 16.1025L355.725 13.7645C356.148 13.4689 356.252 12.8858 355.957 12.4621C355.659 12.0366 355.073 11.938 354.654 12.2301L349.531 15.8024L349.567 9.7613C349.571 9.24444 349.154 8.82432 348.638 8.82074H348.632C348.119 8.82074 347.701 9.23548 347.697 9.75055L347.666 15.0822L344.46 11.6944C344.103 11.3217 343.514 11.302 343.138 11.6577C342.763 12.0124 342.747 12.6054 343.101 12.9798L346.109 16.1598L340.409 16.2109C339.893 16.2162 339.478 16.6113 339.483 17.0959C339.489 17.5769 339.905 17.9639 340.418 17.9639H340.427L346.51 17.9093L341.66 21.2908C341.236 21.5864 341.132 22.1695 341.428 22.5932C341.611 22.8548 341.901 22.9928 342.194 22.9928C342.381 22.9928 342.567 22.9381 342.729 22.8244L347.639 19.4007L347.603 25.4866C347.6 26.0035 348.016 26.4236 348.533 26.4272H348.538C349.051 26.4272 349.47 26.0124 349.473 25.4973L349.507 19.7492L352.924 23.3609C353.109 23.5544 353.355 23.6529 353.603 23.6529C353.833 23.6529 354.065 23.5687 354.246 23.3977C354.62 23.0429 354.637 22.4499 354.283 22.0755L350.308 17.8743L355.562 17.8277C356.079 17.8224 356.493 17.4273 356.488 16.9427C356.482 16.4608 356.066 16.0738 355.549 16.0738Z" fill="#333333"/>
<path d="M100.004 129.528H99.9986L96.8254 129.557L100.18 127.219C100.603 126.923 100.707 126.34 100.412 125.916C100.114 125.491 99.5275 125.392 99.1093 125.684L93.9863 129.257L94.0221 123.215C94.0257 122.699 93.6092 122.278 93.0924 122.275H93.087C92.5738 122.275 92.1556 122.69 92.152 123.205L92.1207 128.536L88.9143 125.149C88.5578 124.776 87.9685 124.756 87.5923 125.112C87.218 125.467 87.2018 126.06 87.5556 126.434L90.564 129.614L84.8642 129.665C84.3475 129.67 83.9328 130.065 83.9382 130.55C83.9435 131.031 84.36 131.418 84.8732 131.418H84.8822L90.9653 131.363L86.1145 134.745C85.6909 135.041 85.587 135.624 85.8826 136.047C86.0653 136.309 86.3555 136.448 86.6492 136.448C86.8355 136.448 87.0218 136.393 87.1839 136.279L92.0938 132.856L92.058 138.942C92.0544 139.458 92.4708 139.879 92.9876 139.882H92.993C93.5062 139.882 93.9245 139.467 93.928 138.952L93.9621 133.204L97.3789 136.816C97.5634 137.009 97.8097 137.108 98.0578 137.108C98.288 137.108 98.5199 137.024 98.7009 136.853C99.0752 136.498 99.0913 135.905 98.7376 135.531L94.7628 131.329L100.017 131.283C100.533 131.277 100.948 130.882 100.943 130.398C100.937 129.915 100.521 129.528 100.004 129.528Z" fill="#333333"/>
<path d="M361.782 373.892H361.777L358.603 373.921L361.958 371.583C362.381 371.287 362.485 370.704 362.189 370.28C361.892 369.855 361.305 369.756 360.887 370.048L355.764 373.621L355.8 367.58C355.804 367.063 355.387 366.643 354.87 366.639H354.865C354.352 366.639 353.934 367.054 353.93 367.569L353.899 372.9L350.692 369.513C350.336 369.14 349.746 369.12 349.37 369.476C348.996 369.831 348.98 370.424 349.334 370.798L352.342 373.978L346.642 374.029C346.125 374.035 345.711 374.43 345.716 374.914C345.721 375.395 346.138 375.782 346.651 375.782H346.66L352.743 375.728L347.892 379.109C347.469 379.405 347.365 379.988 347.661 380.412C347.843 380.673 348.133 380.812 348.427 380.812C348.613 380.812 348.8 380.757 348.962 380.644L353.872 377.22L353.836 383.306C353.832 383.823 354.249 384.243 354.766 384.246H354.771C355.284 384.246 355.702 383.832 355.706 383.317L355.74 377.568L359.157 381.18C359.341 381.374 359.588 381.472 359.836 381.472C360.066 381.472 360.298 381.388 360.479 381.217C360.853 380.862 360.869 380.269 360.516 379.895L356.541 375.694L361.794 375.647C362.311 375.642 362.726 375.247 362.721 374.762C362.714 374.279 362.299 373.892 361.782 373.892Z" fill="#333333"/>
<path d="M38.2955 219.841C38.1136 218.008 37.3333 216.583 35.9545 215.568C34.5758 214.553 32.7045 214.045 30.3409 214.045C28.7348 214.045 27.3788 214.273 26.2727 214.727C25.1667 215.167 24.3182 215.78 23.7273 216.568C23.1515 217.356 22.8636 218.25 22.8636 219.25C22.8333 220.083 23.0076 220.811 23.3864 221.432C23.7803 222.053 24.3182 222.591 25 223.045C25.6818 223.485 26.4697 223.871 27.3636 224.205C28.2576 224.523 29.2121 224.795 30.2273 225.023L34.4091 226.023C36.4394 226.477 38.303 227.083 40 227.841C41.697 228.598 43.1667 229.53 44.4091 230.636C45.6515 231.742 46.6136 233.045 47.2955 234.545C47.9924 236.045 48.3485 237.765 48.3636 239.705C48.3485 242.553 47.6212 245.023 46.1818 247.114C44.7576 249.189 42.697 250.803 40 251.955C37.3182 253.091 34.0833 253.659 30.2955 253.659C26.5379 253.659 23.2652 253.083 20.4773 251.932C17.7045 250.78 15.5379 249.076 13.9773 246.818C12.4318 244.545 11.6212 241.735 11.5455 238.386H21.0682C21.1742 239.947 21.6212 241.25 22.4091 242.295C23.2121 243.326 24.2803 244.106 25.6136 244.636C26.9621 245.152 28.4848 245.409 30.1818 245.409C31.8485 245.409 33.2955 245.167 34.5227 244.682C35.7652 244.197 36.7273 243.523 37.4091 242.659C38.0909 241.795 38.4318 240.803 38.4318 239.682C38.4318 238.636 38.1212 237.758 37.5 237.045C36.8939 236.333 36 235.727 34.8182 235.227C33.6515 234.727 32.2197 234.273 30.5227 233.864L25.4545 232.591C21.5303 231.636 18.4318 230.144 16.1591 228.114C13.8864 226.083 12.7576 223.348 12.7727 219.909C12.7576 217.091 13.5076 214.629 15.0227 212.523C16.553 210.417 18.6515 208.773 21.3182 207.591C23.9848 206.409 27.0152 205.818 30.4091 205.818C33.8636 205.818 36.8788 206.409 39.4545 207.591C42.0455 208.773 44.0606 210.417 45.5 212.523C46.9394 214.629 47.6818 217.068 47.7273 219.841H38.2955ZM70.5739 253.682C67.0436 253.682 63.9905 252.932 61.4148 251.432C58.8542 249.917 56.8769 247.811 55.483 245.114C54.089 242.402 53.392 239.258 53.392 235.682C53.392 232.076 54.089 228.924 55.483 226.227C56.8769 223.515 58.8542 221.409 61.4148 219.909C63.9905 218.394 67.0436 217.636 70.5739 217.636C74.1042 217.636 77.1496 218.394 79.7102 219.909C82.286 221.409 84.2708 223.515 85.6648 226.227C87.0587 228.924 87.7557 232.076 87.7557 235.682C87.7557 239.258 87.0587 242.402 85.6648 245.114C84.2708 247.811 82.286 249.917 79.7102 251.432C77.1496 252.932 74.1042 253.682 70.5739 253.682ZM70.6193 246.182C72.2254 246.182 73.5663 245.727 74.642 244.818C75.7178 243.894 76.5284 242.636 77.0739 241.045C77.6345 239.455 77.9148 237.644 77.9148 235.614C77.9148 233.583 77.6345 231.773 77.0739 230.182C76.5284 228.591 75.7178 227.333 74.642 226.409C73.5663 225.485 72.2254 225.023 70.6193 225.023C68.9981 225.023 67.6345 225.485 66.5284 226.409C65.4375 227.333 64.6117 228.591 64.0511 230.182C63.5057 231.773 63.233 233.583 63.233 235.614C63.233 237.644 63.5057 239.455 64.0511 241.045C64.6117 242.636 65.4375 243.894 66.5284 244.818C67.6345 245.727 68.9981 246.182 70.6193 246.182ZM109.824 253.682C106.248 253.682 103.172 252.924 100.597 251.409C98.036 249.879 96.0663 247.758 94.6875 245.045C93.3239 242.333 92.642 239.212 92.642 235.682C92.642 232.106 93.3314 228.97 94.7102 226.273C96.1042 223.561 98.0814 221.447 100.642 219.932C103.203 218.402 106.248 217.636 109.778 217.636C112.824 217.636 115.491 218.189 117.778 219.295C120.066 220.402 121.877 221.955 123.21 223.955C124.544 225.955 125.278 228.303 125.415 231H116.278C116.021 229.258 115.339 227.856 114.233 226.795C113.142 225.72 111.71 225.182 109.938 225.182C108.438 225.182 107.127 225.591 106.006 226.409C104.9 227.212 104.036 228.386 103.415 229.932C102.794 231.477 102.483 233.348 102.483 235.545C102.483 237.773 102.786 239.667 103.392 241.227C104.013 242.788 104.884 243.977 106.006 244.795C107.127 245.614 108.438 246.023 109.938 246.023C111.044 246.023 112.036 245.795 112.915 245.341C113.809 244.886 114.544 244.227 115.119 243.364C115.71 242.485 116.097 241.432 116.278 240.205H125.415C125.263 242.871 124.536 245.22 123.233 247.25C121.945 249.265 120.165 250.841 117.892 251.977C115.619 253.114 112.93 253.682 109.824 253.682ZM131.614 253V218.091H141.295V253H131.614ZM136.477 213.591C135.038 213.591 133.803 213.114 132.773 212.159C131.758 211.189 131.25 210.03 131.25 208.682C131.25 207.348 131.758 206.205 132.773 205.25C133.803 204.28 135.038 203.795 136.477 203.795C137.917 203.795 139.144 204.28 140.159 205.25C141.189 206.205 141.705 207.348 141.705 208.682C141.705 210.03 141.189 211.189 140.159 212.159C139.144 213.114 137.917 213.591 136.477 213.591ZM159.006 253.659C156.778 253.659 154.794 253.273 153.051 252.5C151.309 251.712 149.93 250.553 148.915 249.023C147.915 247.477 147.415 245.553 147.415 243.25C147.415 241.311 147.771 239.682 148.483 238.364C149.195 237.045 150.165 235.985 151.392 235.182C152.619 234.379 154.013 233.773 155.574 233.364C157.15 232.955 158.801 232.667 160.528 232.5C162.559 232.288 164.195 232.091 165.438 231.909C166.68 231.712 167.581 231.424 168.142 231.045C168.703 230.667 168.983 230.106 168.983 229.364V229.227C168.983 227.788 168.528 226.674 167.619 225.886C166.725 225.098 165.453 224.705 163.801 224.705C162.059 224.705 160.672 225.091 159.642 225.864C158.612 226.621 157.93 227.576 157.597 228.727L148.642 228C149.097 225.879 149.991 224.045 151.324 222.5C152.657 220.939 154.377 219.742 156.483 218.909C158.604 218.061 161.059 217.636 163.847 217.636C165.786 217.636 167.642 217.864 169.415 218.318C171.203 218.773 172.786 219.477 174.165 220.432C175.559 221.386 176.657 222.614 177.46 224.114C178.263 225.598 178.665 227.379 178.665 229.455V253H169.483V248.159H169.21C168.65 249.25 167.9 250.212 166.96 251.045C166.021 251.864 164.892 252.508 163.574 252.977C162.256 253.432 160.733 253.659 159.006 253.659ZM161.778 246.977C163.203 246.977 164.46 246.697 165.551 246.136C166.642 245.561 167.498 244.788 168.119 243.818C168.741 242.848 169.051 241.75 169.051 240.523V236.818C168.748 237.015 168.331 237.197 167.801 237.364C167.286 237.515 166.703 237.659 166.051 237.795C165.4 237.917 164.748 238.03 164.097 238.136C163.445 238.227 162.854 238.311 162.324 238.386C161.188 238.553 160.195 238.818 159.347 239.182C158.498 239.545 157.839 240.038 157.369 240.659C156.9 241.265 156.665 242.023 156.665 242.932C156.665 244.25 157.142 245.258 158.097 245.955C159.066 246.636 160.294 246.977 161.778 246.977ZM195.858 206.455V253H186.176V206.455H195.858ZM228.449 206.455V253H218.608V206.455H228.449ZM253.045 253H236.545V206.455H253.182C257.864 206.455 261.894 207.386 265.273 209.25C268.652 211.098 271.25 213.758 273.068 217.227C274.902 220.697 275.818 224.848 275.818 229.682C275.818 234.53 274.902 238.697 273.068 242.182C271.25 245.667 268.636 248.341 265.227 250.205C261.833 252.068 257.773 253 253.045 253ZM246.386 244.568H252.636C255.545 244.568 257.992 244.053 259.977 243.023C261.977 241.977 263.477 240.364 264.477 238.182C265.492 235.985 266 233.152 266 229.682C266 226.242 265.492 223.432 264.477 221.25C263.477 219.068 261.985 217.462 260 216.432C258.015 215.402 255.568 214.886 252.659 214.886H246.386V244.568Z" fill="#333333"/>
</svg>
